<svg xmlns="http://www.w3.org/2000/svg" viewBox="0 0 1200 1000"><g style="isolation:isolate"><g id="Layer_1" data-name="Layer 1"><path d="M1160.6,979.3c0,6-251,10.9-560.6,10.9S39.4,985.3,39.4,979.3s251-10.9,560.6-10.9S1160.6,973.2,1160.6,979.3Z" style="fill:#898989"/><path d="M982.2,178c16.6,2.9,37.6,1.9,52.8,11.8,16.9,11.1,20.3,41.9,24.2,59.9,8.7,40,14.5,81.4,20,122,3.7,27.4,12.2,67.4-2.1,92.8-20.8,37.2-90,41.4-126.3,31.2-47.1-13.3-51.3-66.4-50.9-107.4-.5-1.1-.4.8-1,1Z" style="fill:#140f0e"/><path d="M765.4,977.8c6,4.2,48.8,3.4,62.4,1.1h.1c2.2-.4,3.7-.8,4.3-1.3h.2c1.8-1.7,1.3-8.9-.2-17.4-2.4-13.7-7.3-31.1-9.3-35.5L804.1,927C792.4,956.3,760.2,959,765.4,977.8Z" style="fill:#301f23"/><path d="M832.4,977.5h-.1a12.9,12.9,0,0,1-4.4,1.3h-.1c-13.6,2.3-56.4,3.1-62.4-1.1a13.1,13.1,0,0,1,.2-8.1,3.6,3.6,0,0,1,.2,1c6,4.2,48.8,3.4,62.4,1.1h.1c2.2-.4,3.8-.8,4.4-1.3l.8-.2C833.7,973.9,833.4,976.6,832.4,977.5Z" style="fill:#140d0f"/><path d="M831.7,872.8,801,858c.8,21.4-.8,81.1,1.3,85.3,0,0,9,2.8,13,.7C823.3,939.6,833,886.3,831.7,872.8Z" style="fill:#d88d5b"/><path d="M802.5,918.4c-9.8.5-13.3,4.5-11,13.1,1.1,3.9,4.9,20.4,1.4,21.5l19.3.6C815.8,943.6,822.7,917.5,802.5,918.4Z" style="fill:#301f23"/><path d="M1016.6,978.4c-1.1.8-3.2,1.4-6,1.8-12.5,1.9-38.6.6-49.7-1.3h-.1l-2.4-.5a5.5,5.5,0,0,1-2-.8h-.1c-1-1-1.3-3.6-1.1-7.3.1-.6.1-1.2.2-1.8.2-2.5.6-5.3,1.1-8.3,2.4-13.7,7.3-31.1,9.2-35.5l18.9,2.4c5.4,13.6,13.8,21.6,20.7,28.1s10.8,10.2,11.8,16.3A17,17,0,0,1,1016.6,978.4Z" style="fill:#301f23"/><path d="M1016.6,978.4c-1.1.8-3.2,1.4-6,1.8-14.9,1.2-40.3,0-51.6-1.7h-.6a5.5,5.5,0,0,1-2-.8h-.1c-1-1-1.3-3.6-1.1-7.3l3.7.3a.1.1,0,0,1,.1.1c13.2,1.9,45.5,3.3,58.1.8A17,17,0,0,1,1016.6,978.4Z" style="fill:#140d0f"/><path d="M957,872.8,987.7,858c-.8,21.4.8,81.1-1.3,85.3,0,0-9,2.8-13,.7C965.4,939.6,955.7,886.3,957,872.8Z" style="fill:#d88d5b"/><path d="M986.2,918.4c9.8.5,13.3,4.5,11,13.1-1.1,3.9-4.9,20.4-1.4,21.5l-19.3.6C972.9,943.6,966,917.5,986.2,918.4Z" style="fill:#301f23"/><path d="M1007.7,499.5c-.1,1.2-.1,2.5-.2,3.8-2.9,68.1-9.4,177-7.6,264a1027.1,1027.1,0,0,1-7.2,141.5l-36.3,1.3c-6-32.1-16-89.6-12.6-141.1,4.6-69.2-8.7-145.7-15.8-217.8-.8-8.4-1.6-16.7-2.2-24.9h0l-.3-3.7v-2.4h0v-3.3l2-60.4.3-7.8,80.5-4.1C1009.3,454,1008.8,473.5,1007.7,499.5Z" style="fill:#176e82"/><path d="M791.9,906.1l34.6,2.6c1.5-3.8,3.1-8.1,4.9-12.8,12.1-32.3,28.9-82.6,34.5-127.3,9.7-77.8,38.3-159.9,59.1-237.5,0-.2.1-.4.1-.7l.7-4.1h0l.9-5.8.6-3.8v-.3l8.4-53,1-6.1-9.1-.9-72-6.9c-2.2,8-4.3,23.2-6.7,43.3-.2,1.2-.3,2.5-.5,3.8-7.3,63.6-16.8,172.3-35.9,261.5-5.6,25.9-9.1,53.2-11.8,77.6s-4.6,46.4-7,60.8C793.2,900.2,792.5,903.4,791.9,906.1Z" style="fill:#176e82"/><path d="M951.2,893.8c-1.4,4.8,1.7,13.2,1.9,18.2l40.8,1.2c2.2-5.3,2.2-13.9,2.5-20C981,893.8,965.3,894.5,951.2,893.8Z" style="fill:#1c92a5"/><path d="M882,452.4c-.1.6-.1,1.2-.2,1.8-1,10.8-2.6,27.1-11.8,35.2-6.2,5.4-13.5,7.2-21,7.2h-.5c.2-1.3.3-2.6.5-3.8,6.6,0,13.1-1.5,18.4-6.2,8.1-7.1,9.6-22.5,10.6-32.8,0-.6.1-1.2.1-1.7Z" style="fill:#bacae0"/><path d="M793.8,896.5c6.9-.5,14.6-.2,21.2-.9,3.2-.3,9.9.2,16.4.3,12.1-32.3,28.9-82.6,34.5-127.3,9.7-77.8,38.3-159.9,59.1-237.5,0-.2.1-.4.1-.7l.7-4.1h0l.9-5.8.6-3.8v-.3H911.9c-8.7,11.2-11.6,36.4-14.7,51.6-3.6,18.3-9.2,35.7-15.7,54.2-12.8,36.4-23.5,70.9-27.3,109-3.1,30.9-8.9,117.6-53.4,104.5C798.1,860.3,796.2,882.1,793.8,896.5Z" style="fill:#125a66"/><path d="M1007.7,499.5c-.1,1.2-.1,2.5-.2,3.8-8.5,0-16.8-1.8-23.9-7.1-10.7-8.1-12.5-24.5-13.8-35.3a11,11,0,0,0-.2-1.8l3.9-.4c.1.6.1,1.2.2,1.8,1.2,10.2,2.9,25.6,12.3,32.7C992.3,497.9,999.8,499.5,1007.7,499.5Z" style="fill:#bacae0"/><path d="M912.4,520.9l-.5-1.2c-4.5-11.8,1-44.1,5.5-53.8l3.5,1.5c-4.1,9-9.1,38.1-5.8,49.7,6.1-.1,10.3-.3,12.5-.5l.4,3.8c-2.6.2-7.3.4-14.2.5Z" style="fill:#1c92a5"/><path d="M937.5,463.7c-6.9,29.2-8.4,56.9-9.5,87.5h0c-.8-8.4-1.6-16.7-2.2-24.9l-.7,4.1c0,.3-.1.5-.1.7l.6-10.6v-.3h0l.3-3.3a335.1,335.1,0,0,1,7.8-53.9l2.1.5Z" style="fill:#1c92a5"/><path d="M792.7,888.9c-1.4,4.8-2.9,12.4-2.7,17.4l41.4,3.2a73.7,73.7,0,0,0,4.5-20C820.4,890,806.8,889.6,792.7,888.9Z" style="fill:#1c92a5"/><path d="M1032.5,282.9c-4.9,33.3-17.7,82.7-18.4,97.8v.9c-1.1,24.5,0,60-1.1,83.4-4.7,15.2-87.4,10.6-132.3,2.9h-1.6l-1.3-.3c-14-2.5-23.8-5.2-25.5-7.7h0c0-.1-.1-.2-.1-.3a.4.4,0,0,1-.1-.3c-1.6-9,5.9-35.1,7.7-44.2,4.7-23.4.2-80.2-.3-91.7-.2-3-.5-6.1-1-9.2a141,141,0,0,0-4.8-21.4l-1.8-5.3c-3.8-11.1-10.3-24-11.5-35.4s8.4-54.2,10.2-65.8,37.6-10.2,45.1-18.8l19.2,8.7c6.9-1.9,16.6,1.2,24.3-.2,6-1.1,12.1-3.9,17.9-5.7s10.8-6,15.7-6.8c9.8-1.5,51.8,7.1,60.9,10.3h.2c1.9.7,3.3,2.6,4.4,5.5C1045.3,198.7,1035.7,261.5,1032.5,282.9Z" style="fill:#3f2935"/><path d="M888.6,171.5c3,11.7,16.1,31.8,33.5,32.5s46.6-19.3,57.1-39.7c-5.9-1.3-12.2,1.5-15.1-6.6-1.7-4.8-3.1-6.8-3.9-11.9h0c-.1-1.3-.3-2.5-.5-3.8a122,122,0,0,1-.7-17.3c.1-6.6.4-13.3.2-19,0-.8-.1-1.7-.1-2.5l-43.5,21.5-19,9.4v2a76.9,76.9,0,0,0,1.4,8.1,45,45,0,0,1,1.1,12.3C898.6,162.8,895.7,168.1,888.6,171.5Z" style="fill:#ffb278"/><path d="M896.6,134v2a76.9,76.9,0,0,0,1.4,8.1,45,45,0,0,1,1.1,12.3c10.3,10.3,19.5,10.9,27,9.1,18.6-4.5,32.8-35,32.9-40.9H915.6Z" style="fill:#e5804e"/><path d="M1032.5,282.9c-4.9,33.3-17.7,82.7-18.4,97.8v.9c-1.1,24.5,0,60-1.1,83.4-.8,16-86.3,10.9-132.3,2.9h-1.6l-1.3-.3c-14-2.5-23.8-5.3-25.5-7.7h0c0-.1-.1-.2-.1-.3a.4.4,0,0,1-.1-.3c-1.6-9,5.9-35.1,7.7-44.2,4.7-23.4.2-80.2-.3-91.7-.2-3-.5-6.1-1-9.2a141,141,0,0,0-4.8-21.4c11,6.4,54.6,17.3,71.2,19.3,59.4,7.2,88.3-30.7,93.1-46,7.8-25.3,13.9-58.7,20.3-86.7C1045.3,198.7,1035.7,261.5,1032.5,282.9Z" style="fill:#23161e"/><path d="M1019.8,268.7c11.6,19.6,15.3,26.8,19.2,34.3,7.4,14.8,15,31,20.4,44.3a1.9,1.9,0,0,0,.2.7c4.1,10.2,7.2,29.7,18.2,36.3,3.7,2.2,8.4,3,14.3,1.3h0l1-.3c14.7-4.6,19.7-18.6,19-36.4-1.5-44.9-54.7-161.9-76.2-174.4,0,0-34.3,45.5-34,63.5C1002.1,246.9,1019.8,268.7,1019.8,268.7Z" style="fill:#d8250e"/><path d="M937.4,527.2c14.4,5,38.4.6,54-.8,7.9-.7,15-3,23-2.8s18.9,4.9,25.1,3.6c.5-5.6-11.2-172.9-9.8-188,4-43.7,16.1-99.4,15.2-151.3-.1-5.2-8.2-14.6-13.4-16.1-7.8-2.3-18.1-4.2-28.1-5.8-13-2-25.4-3.3-30.8-3.8l-2.9-.3c0,.7-.1,3.1-.3,7.1-1.1,17.6-5,64.9-9.8,119.6C950.9,388.4,939.4,513,937.4,527.2Z" style="fill:#d8250e"/><path d="M898.7,530c-11.9,4.3-31.3-1-44-3-6.3-1-12-3.6-18.6-3.6s-15.7,4-20.7,2.5c-.1-5.6,21.6-341.4,36.1-348.9,6-3.1,38.5-7.7,38.5-7.7s-.1,3-.1,7c.1,17.3,1,64,2.3,118.1C894.5,392.9,897.8,515.9,898.7,530Z" style="fill:#d8250e"/><path d="M777.9,521a6.9,6.9,0,0,1-5.8-7.8L783.4,434a7,7,0,0,1,7.9-5.8l116.4,16.7a6.8,6.8,0,0,1,5.8,7.8l-11.3,79.1a7,7,0,0,1-7.8,5.9Z" style="fill:#e25b00"/><path d="M778.8,515.3a7,7,0,0,1-5.9-7.8l11.4-79.2a6.8,6.8,0,0,1,7.8-5.8l116.4,16.7a6.9,6.9,0,0,1,5.9,7.8L903,526.1a6.9,6.9,0,0,1-7.8,5.9Z" style="fill:#e59e00"/><path d="M893.8,444.9a2.4,2.4,0,0,1-2.2-2.9h0a2.5,2.5,0,0,1,2.9-2.2h0a2.6,2.6,0,0,1,2.2,2.9h0a2.6,2.6,0,0,1-2.9,2.2Z" style="fill:#69999e"/><path d="M881,443.1a2.6,2.6,0,0,1-2.2-3h0a2.6,2.6,0,0,1,3-2.2h0a2.7,2.7,0,0,1,2.2,3h0a2.6,2.6,0,0,1-3,2.2Z" style="fill:#69999e"/><path d="M868.3,441.3a2.7,2.7,0,0,1-2.2-3h0a2.6,2.6,0,0,1,2.9-2.2h0a2.6,2.6,0,0,1,2.3,3h0a2.7,2.7,0,0,1-3,2.2Z" style="fill:#69999e"/><path d="M855.6,439.4a2.6,2.6,0,0,1-2.3-2.9h0a2.7,2.7,0,0,1,3-2.2h0a2.6,2.6,0,0,1,2.2,2.9h0a2.4,2.4,0,0,1-2.9,2.2Z" style="fill:#69999e"/><path d="M842.8,437.6a2.6,2.6,0,0,1-2.2-2.9h0a2.6,2.6,0,0,1,3-2.3h0a2.7,2.7,0,0,1,2.2,3h0a2.6,2.6,0,0,1-3,2.2Z" style="fill:#69999e"/><path d="M830.1,435.8a2.6,2.6,0,0,1-2.2-3h0a2.6,2.6,0,0,1,2.9-2.2h0a2.6,2.6,0,0,1,2.2,3h0a2.6,2.6,0,0,1-2.9,2.2Z" style="fill:#69999e"/><path d="M817.3,434a2.7,2.7,0,0,1-2.2-3h0a2.7,2.7,0,0,1,3-2.2h0a2.6,2.6,0,0,1,2.2,2.9h0a2.6,2.6,0,0,1-3,2.3Z" style="fill:#69999e"/><path d="M804.6,432.1a2.6,2.6,0,0,1-2.2-2.9h0a2.6,2.6,0,0,1,3-2.2h0a2.6,2.6,0,0,1,2.2,2.9h0a2.7,2.7,0,0,1-3,2.2Z" style="fill:#69999e"/><path d="M894.1,442.5a1.6,1.6,0,0,1-1.3-1.9l1.4-10a1.5,1.5,0,0,1,1.8-1.3h0a1.6,1.6,0,0,1,1.4,1.8l-1.5,10a1.6,1.6,0,0,1-1.8,1.4Z" style="fill:#fff"/><path d="M881.4,440.6a1.6,1.6,0,0,1-1.4-1.8l1.5-10a1.6,1.6,0,0,1,1.8-1.4h0a1.6,1.6,0,0,1,1.3,1.9l-1.4,10a1.5,1.5,0,0,1-1.8,1.3Z" style="fill:#fff"/><path d="M868.6,438.8a1.6,1.6,0,0,1-1.3-1.8l1.4-10a1.6,1.6,0,0,1,1.8-1.4h0a1.6,1.6,0,0,1,1.4,1.8l-1.4,10a1.8,1.8,0,0,1-1.9,1.4Z" style="fill:#fff"/><path d="M855.9,437a1.6,1.6,0,0,1-1.3-1.8l1.4-10.1a1.6,1.6,0,0,1,1.8-1.3h0a1.6,1.6,0,0,1,1.4,1.8l-1.5,10a1.6,1.6,0,0,1-1.8,1.4Z" style="fill:#fff"/><path d="M843.2,435.1a1.6,1.6,0,0,1-1.4-1.8l1.4-10a1.6,1.6,0,0,1,1.9-1.3h0a1.5,1.5,0,0,1,1.3,1.8l-1.4,10a1.5,1.5,0,0,1-1.8,1.3Z" style="fill:#fff"/><path d="M830.4,433.3a1.5,1.5,0,0,1-1.3-1.8l1.4-10a1.6,1.6,0,0,1,1.8-1.4h0a1.7,1.7,0,0,1,1.4,1.8L832.3,432a1.8,1.8,0,0,1-1.9,1.3Z" style="fill:#fff"/><path d="M817.7,431.5a1.6,1.6,0,0,1-1.4-1.8l1.5-10a1.6,1.6,0,0,1,1.8-1.4h0a1.6,1.6,0,0,1,1.4,1.8l-1.5,10a1.6,1.6,0,0,1-1.8,1.4Z" style="fill:#fff"/><path d="M805,429.7a1.8,1.8,0,0,1-1.4-1.9l1.4-10a1.7,1.7,0,0,1,1.9-1.3h0a1.5,1.5,0,0,1,1.3,1.8l-1.4,10a1.6,1.6,0,0,1-1.8,1.4Z" style="fill:#fff"/><path d="M1018.1,259l.2.7A1.9,1.9,0,0,1,1018.1,259Z" style="fill:#ba562f"/><path d="M875.8,39.2l16.6,9.5c-3.3,7.9-7.1,14.8-8.1,23.7s-1.3,16.9,0,25.1a71.7,71.7,0,0,1-8.9-18.9C872.3,68.5,871.4,49.1,875.8,39.2Z" style="fill:#1e1714"/><path d="M964.4,94.7c-.2,2.5.9,9.1.8,12.5-.3,8.6-1.3,22.3-5.4,27.3-15.6,19.3-33.5,25.7-45.6,23.8-16.1-2.5-24.2-18.1-26.6-22.4s-3.4-11.7-4.2-21.6c-2.1-25.6-.1-65.2,1.4-77l10.8-5.6c9.9-3,16.6-4.9,27-3.9,16.1,1.7,36.4,5.4,40.8,23.5C965.6,60.4,964.8,85.4,964.4,94.7Z" style="fill:#ffb278"/><path d="M875,83.3c5.6.4,8.3,8.7,9.1,13l.4,17.6c-9.7,11.3-15.9-11.1-16.8-18C867.1,91,868.2,82.8,875,83.3Z" style="fill:#ffb278"/><path d="M879.6,95.4c-4.9,1.8-3.2,9.2.7,10.9.2-.3-5.3.6-6.4-3.3a10.5,10.5,0,0,1,2.4-10.5c-1.2-2.3-4.5-4-5.5-1C872.6,82.3,879.8,88.5,879.6,95.4Z" style="fill:#e5804e"/><path d="M933.7,94.3c.7.4,1.5-2.2,2.2-1.8A19.2,19.2,0,0,0,948.6,94a5.7,5.7,0,0,1,5,1c-2.2-2.6-3.3-7.3-5.3-8.2a11.3,11.3,0,0,0-4.5-.8c-3.6,0-5.7.7-7.8,2.8S934.4,93.3,933.7,94.3Z" style="fill:#e5804e"/><path d="M933.7,94.3l2,1.1A19.6,19.6,0,0,0,948.5,97a19,19,0,0,0,5.1-2c-2.2-2.6-3.5-4.3-5.5-5.2a10.7,10.7,0,0,0-4.5-.8c-3.6,0-5.6.7-7.8,2.8A18.4,18.4,0,0,0,933.7,94.3Z" style="fill:#fff"/><path d="M935.6,94c0,.5.1,1,.1,1.4A19.6,19.6,0,0,0,948.5,97a15.3,15.3,0,0,0,.3-3,11.2,11.2,0,0,0-.7-4.2,10.7,10.7,0,0,0-4.5-.8c-3.6,0-5.6.7-7.8,2.8A15,15,0,0,0,935.6,94Z" style="fill:#2d221e"/><path d="M938.8,93.3c0,.9.4,1.7.8,1.7s.9-.8.9-1.7-.4-1.6-.9-1.6S938.8,92.4,938.8,93.3Z" style="fill:#fff"/><path d="M886.2,94.9c.6.4,1.3-2.3,1.9-2a17.5,17.5,0,0,0,12.2.7,5.2,5.2,0,0,1,4.9.6c-2.2-2.5-3.6-7-5.6-7.8a9.4,9.4,0,0,0-4.3-.4c-3.4.2-5.4,1-7.3,3.3C887.4,90,886.8,93.9,886.2,94.9Z" style="fill:#e5804e"/><path d="M886.2,94.9a12.4,12.4,0,0,0,2,1,16.9,16.9,0,0,0,12.2.6,15.9,15.9,0,0,0,4.8-2.3c-2.2-2.5-3.6-4.1-5.5-4.8a11.3,11.3,0,0,0-4.4-.5c-3.4.3-5.3,1.1-7.3,3.4A19.5,19.5,0,0,0,886.2,94.9Z" style="fill:#fff"/><path d="M888,94.5a7.8,7.8,0,0,0,.2,1.4,16.9,16.9,0,0,0,12.2.6,14.5,14.5,0,0,0,.1-3,16.6,16.6,0,0,0-.8-4.1,11.3,11.3,0,0,0-4.4-.5c-3.4.3-5.3,1.1-7.3,3.4Z" style="fill:#2d221e"/><path d="M891.1,93.4c0,.9.4,1.6.9,1.6s.7-.8.7-1.7-.5-1.6-.9-1.6S891,92.5,891.1,93.4Z" style="fill:#fff"/><path d="M896,80.7c2.9.6,6.1.7,9.2,1.4s1.6,6.1,1.6,6.1-9.6-.3-12.2-.4-9.2-2.3-12.4-.5C886.2,81,888.4,79.2,896,80.7Z" style="fill:#2d221e"/><path d="M942.3,79.9c-3.2.6-6.8.6-10.2,1.3s-1.8,6.1-1.8,6.1,10.6-.2,13.5-.2,10.3-2.1,13.8-.3C953.2,80.4,950.7,78.6,942.3,79.9Z" style="fill:#2d221e"/><path d="M933.2,127.4h-.3l-.8.4-1.3.6-.7.4-.9.4-2,.8-1,.3-1.2.4-1.1.4h-.6l-.6.2-1.3.2-1.2.3-2.5.2h-2.4l-2.3-.2h-1.1l-.9-.2-1.8-.4-.7-.2-.6-.2-.9-.3h-.3l.2.2.7.6.5.4.7.4.8.5.9.5,1,.4,1.1.4a15.3,15.3,0,0,0,2.5.6h4.1l1.4-.2a21.4,21.4,0,0,0,2.7-.6l2.6-1,1.1-.5,1.1-.6,1-.7.9-.6.7-.6.7-.6,1-1.1.6-.7Z" style="fill:#e5804e"/><path d="M911.9,99.1c-.8,7.2-1.3,15.1,1.8,19.1,5,.1,10.9-.1,10.9-.1-4.3,3.2-13.2,5.8-16.5,1.3C908.2,119.4,909.4,104.8,911.9,99.1Z" style="fill:#e5804e"/><path d="M923.9,99.1c0-6.6,7.6-12,16.9-12s16.9,5.4,16.9,12-7.6,12-16.9,12S923.9,105.7,923.9,99.1Zm2.1,0c0,5.4,6.6,9.8,14.8,9.8s14.7-4.4,14.7-9.8-6.6-9.8-14.7-9.8S926,93.7,926,99.1Z" style="fill:#fff"/><path d="M878.4,98.8c0-6.6,7.3-12,16.4-12s16.5,5.4,16.5,12-7.4,12-16.5,12S878.4,105.4,878.4,98.8Zm2.1,0c0,5.4,6.4,9.8,14.3,9.8s14.4-4.4,14.4-9.8S902.7,89,894.8,89,880.5,93.4,880.5,98.8Z" style="fill:#fff"/><path d="M924.1,97.8l1.7-1.3a9.6,9.6,0,0,0-6.6-4.1A13.3,13.3,0,0,0,909,95.7l1.3,1.7a11.6,11.6,0,0,1,8.7-2.8A7.4,7.4,0,0,1,924.1,97.8Z" style="fill:#fff"/><path d="M882.8,51.8c12.1,8,52,9,60,5.4,13-5.9,21.3,6.8,22,13.8.4,5.2-5.2,38.2,4,34.5,0,0,16.5-29.5,17.4-59.1.3-7.8-4.1-14.4-11-19.7-17.1-13-49.9-18.3-67.8-16.5-11.8,1.1-29.6,6.9-35.9,19.1h0C867.8,36.9,877.3,48.1,882.8,51.8Z" style="fill:#2d221e"/><path d="M882.8,51.8c12.1,8,52,9,60,5.4,13-5.9,21.3,6.8,22,13.8.4,5.2-5.2,38.2,4,34.5,0,0,16.5-29.5,17.4-59.1.3-7.8-4.1-14.4-11-19.7-.1.5-.1,1-.2,1.4-.9,8.5-6.3,16.1-14.8,17.9-2.7.6-4.1-.4-6.6-.8s-7.5,0-10.9.4c-7,.7-13.9,2.9-21,3.5-17.6,1.4-38.3-6.3-50.2-19.7C867.8,36.9,877.3,48.1,882.8,51.8Z" style="fill:#1e1714"/><path d="M978.1,88.7c-6.8-.7-10.4,8.1-12.3,12.5l-5,18.5c9.6,14,21.4-8.8,23.8-16C986.2,98.5,986.4,89.6,978.1,88.7Z" style="fill:#ffb278"/><path d="M970.3,100.9c5.6,2.8,2.1,10.4-2.9,11.5-.2-.4,6.3,1.6,8.4-2.3a10.6,10.6,0,0,0-1-11.7c2-2.3,6.2-3.4,6.9-.1C981.3,88.1,971.3,93.4,970.3,100.9Z" style="fill:#e5804e"/><path d="M955,242.6v1.8a9.7,9.7,0,0,1,.1,1.7c0,1.2,0,2.4.1,3.6s.1,2.4.1,3.6.1,2.3.2,3.5l.3,3.6a244.8,244.8,0,0,0,3.8,28.2v.3a249.9,249.9,0,0,0,7.2,27.7,33.8,33.8,0,0,0,1.1,3.4c.3,1.1.7,2.2,1.1,3.3l1.2,3.3,1.2,3.3,1.2,3.2c.5,1,.9,2.1,1.3,3.1a7.7,7.7,0,0,0,.7,1.6l.3.8v.4h.1v.3a10.1,10.1,0,0,1,.7,1.5l.3.8.4.8c1,2.1,1.9,4.1,3,6.1l1.5,3,.8,1.4.8,1.5q3.1,5.7,6.6,10.8a195.9,195.9,0,0,0,13.9,18.4c2.3,2.8,4.5,5.3,6.8,7.6s4.3,4.6,6.4,6.6c4.1,4,7.9,7.3,11,9.9s5.8,4.6,7.5,6l2.7,2,17.1,12.9-10.6-21.6-4.7-4L1035,399c-2.8-2.7-6.1-6-9.7-10-1.9-2-3.7-4.2-5.7-6.5l-5.8-7.5a168,168,0,0,1-11.7-17.9q-2.9-5-5.4-10.2l-.6-1.4-.6-1.3a16.9,16.9,0,0,1-1.2-2.8c-.8-1.8-1.6-3.7-2.3-5.5l-.3-.7-.2-.8-.6-1.5v-.4h-.1v-.2l-.3-.7a8.8,8.8,0,0,0-.5-1.5c-.3-1-.7-2-1-3l-.9-3.1c-.4-1-.7-2.1-1-3.1l-.9-3.1c-.3-1-.6-2.1-.8-3.1s-.6-2.1-.8-3.2a227.3,227.3,0,0,1-4.9-25.9,209.9,209.9,0,0,1-1.9-26.2v-6.5c.1-1,.1-2.1.1-3.2s.1-2,.1-3.1a7.6,7.6,0,0,0,.1-1.5v-1.6c0-1.1.1-2.2.2-3.3s.1-1.1.1-1.6v-.9h0V237l.3-2.9a148.4,148.4,0,0,1,4.2-22.8,162,162,0,0,1,6.2-19.6,117.2,117.2,0,0,1,7.1-15.3,69.1,69.1,0,0,1,6.8-9.9l.3-.5c-13-2-25.4-3.3-30.8-3.8a4.7,4.7,0,0,0-.5,1c-.9,1.8-1.8,3.8-2.7,5.8q-2.7,6.3-5.1,13.5a201.2,201.2,0,0,0-5.9,23.2,181.3,181.3,0,0,0-3.2,26.5c-.1,1.2-.1,2.4-.2,3.6v6.8Z" style="fill:#140f0e"/><path d="M1026.2,330.3c-4.6,1.3-48.5-30.8-53.4-31.3-2.9-.3-9.9-2.3-15.8-5.2s-12.6-8.7-7.2-14.4c-6.4-4.2-6.1-13.1.4-14.8-6.4-5.3-4.4-8.9,2-12.8-9-12,2-10.5,11.7-8.9,4.1.7,7.9,1.4,9.8,1.1,7.4-1.1,1-4.3,1.2-13.1.1-5.7,2.4-10.1,8.3-8.5,2.9,5.9,3.8,14.5,12.4,25.5,4.3,5.5,13.8,37.9,13.8,37.9C1002.6,289.2,1033.5,328.3,1026.2,330.3Z" style="fill:#ffb278"/><path d="M957,293.8c-7.1-3.6-12.6-8.7-7.2-14.4-6.4-4.2-6.1-13.1.4-14.8-6.4-5.3-4.4-8.9,2-12.8-9-12,2-10.5,11.7-8.9,1.3,2.8-1.5,6.7-5,8.6a8.1,8.1,0,0,1-1.7,14.1c3.4,2.6,3.3,8.1-.8,10C961.7,280.2,961,288.9,957,293.8Z" style="fill:#e5804e"/><path d="M999.4,320.9c1.7,1.5,22.2,44.2,69.8,60.6l8.6,2.8c5.6,1.6,10,2.2,14.3,1.3h0l1-.3c14.7-4.6,19.7-18.6,19-36.4-1-1.2-2.3-2.6-3.7-4-17.7-18-90.3-48.3-99-62.3Z" style="fill:#d8250e"/><path d="M812.9,474l29.7,1.2c3,9.7,14.5,15.8,17.9,19.7,8.3,9.5,15.7,11.8,20.5,15.3.4,5.6-3.9,6.8-9,6-7.8-1.4-9.5-7.6-11.8-1.2-.6,1.6-.6,5.1-.7,8.9-.2,8.8-.9,18.9-10,8.8-4.5,5-8,6.2-11.6-.4-2.6,5.4-10.6,4.2-13.2-2.2-6,3.8-9.6-1.9-11.6-8.9s-2.1-12.3-1.8-14.9S817.5,485.3,812.9,474Z" style="fill:#ffb278"/><path d="M813.1,521.2c2,7,5.6,12.7,11.6,8.9,2.6,6.4,10.6,7.6,13.2,2.2,3.6,6.6,7.1,5.4,11.6.4,9.1,10.1,9.8,0,10-8.8-2.3-1.7-6.2.1-8.5,2.9-2.3-5.1-9.7-6-12.8-.9a5.3,5.3,0,0,0-9-1C825.9,519.4,818.2,518.6,813.1,521.2Z" style="fill:#e5804e"/><path d="M813,481.9l25.4-3.5,7.2-.9c-2.6-8.6-.3-33.3,2.1-59.4,2.4-24.4,4.8-50.1,3.4-65.3a43.4,43.4,0,0,0-.9-5.9c-.4-2.1-.9-3.9-1.3-5.6h-.1A60.2,60.2,0,0,0,842,338c-12.2-4.9-24-3.6-33.9,7.6l-.7.9h0c-3.1,4.1-4.9,9-6.6,15.5-.7,3-1.4,6.4-2.2,10.1s-2.9-3-3.4,1.8C790.2,424.4,812.7,479.6,813,481.9Z" style="fill:#d8250e"/><path d="M822.8,222.8c4.1-12.3,5.3-20.7,11.7-31.3s10.4-11.6,21.8-16.3l1.4,151.1c.6,11.3-7,28.2-12.1,38.3-4.4,8.5-10.3,19-18.3,24.8s-25.8,9-30.7-2C788.4,369.1,817.6,238.7,822.8,222.8Z" style="fill:#d8250e"/><path d="M1046.7,301.6c-7.2-12.1-18-39.7-19.7-51.9,12.2,29.5,24,46.1,28.6,61.7-19.7-8-33.9-10.1-43.8-29.5C1024.7,288,1035.9,298,1046.7,301.6Z" style="fill:#aa160b"/><path d="M837.2,461.9c0,3.9.8,10.8,1.2,16.5l7.2-.9c-2.6-8.6,3.2-186.7,9.1-220.8-14.9,34.1-17.5,157-17.5,175.6Z" style="fill:#aa160b"/><path d="M371.3,979.6h0c10.4,2.1,39.5,2.4,44-1.4-.1-4.4-1.6-7-2.4-9.3a9.3,9.3,0,0,0-.5-1c-1.4-3.1-3.9-5.1-6.9-8-4.7-4.5-10.7-11-16.1-27H389l-14-2.1h0c-1.6,4.2-5.2,19.6-7,31.8C366.8,970.4,369.6,979.3,371.3,979.6Z" style="fill:#f9dd50"/><path d="M405.3,849.9c-4.4,22.4-14.1,64.6-14.1,88,0,7.8-2.5,18.5-12.8,5-6.7-8.9-7.5-65-7.6-78.1Z" style="fill:#ffb278"/><path d="M375,930.6v.3a101.1,101.1,0,0,0,1.2,19.1c.6,3.5,1.2,9,3.6,11.6s6-.8,8.7-2.1a20.6,20.6,0,0,1,10.4-2,17.5,17.5,0,0,1,6.6,2.4c-4.7-4.5-10.7-11-16.1-27H389a14.7,14.7,0,0,1-7.2,2.4c-3.7.2-5.6-1-6.8-4.4Z" style="fill:#ffb278"/><path d="M463,978.6h.1c10.3,2.1,39.4,2.6,44-1.2-.2-4.4-1.6-7-2.5-9.3a3,3,0,0,0-.4-1c-1.4-3.1-3.9-5.2-6.9-8.1-4.7-4.4-10.6-11-16-27h-.4L467,929.7h-.1c-1.6,4.2-5.3,19.5-7.1,31.7C458.6,969.3,461.3,978.3,463,978.6Z" style="fill:#f9dd50"/><path d="M495.9,850.6c-4.5,22.4-12.6,65.2-12.7,88.6-.1,7.9-2.7,16.3-12.9,2.7-6.7-8.9-7.2-65-7.3-78.1Z" style="fill:#ffb278"/><path d="M466.9,929.6v.3a110.2,110.2,0,0,0,1.2,19.1c.6,3.5,1.2,9,3.5,11.6s6-.7,8.7-2a19.6,19.6,0,0,1,10.4-1.9c2.5.2,4.5,1.3,6.6,2.3-4.7-4.4-10.6-11-16-27h-.4a13.6,13.6,0,0,1-7.2,2.3c-3.7.3-5.6-1-6.8-4.4Z" style="fill:#ffb278"/><path d="M383.4,285.8c-4.5-30.9,9.5-113.6,13.9-132.6,8.9-38.9,18.3-32.2,31.3-35.8L474.7,147c7.2,10.4,7.1,26.4,7.2,38.5,0,14.3,12.7,2.3,11.6,16.5-.9,11.9,2.6,88.9,7.6,91.4C495.7,297.1,386.3,306.1,383.4,285.8Z" style="fill:#301f23"/><path d="M370.4,301.9c4.3-14.7.6-33.4,15.5-35.6,5.8-.8,16.2-2.5,24.5-5.4l-.2-.3h.9a33.7,33.7,0,0,0,5.4-2.3c7-7.4,6.9-30.2,7.6-36.7.1-.9.2-2,.3-3.1.8-8.4,1.2-20.5-2.5-26.8l41.5,19.8,5.1,2.4a13.4,13.4,0,0,0-.7,1.8,61.4,61.4,0,0,0-2.7,20.6v.4h0c.2,1.3.7,3.9,1.5,7.2s1.5,5.5,2.5,8.5h.2c5.2,10,20.1,11.9,31.6,18.6,5.5,3.1,2.2,20.3,2.9,27.4C506.5,324.3,387.8,318.6,370.4,301.9Z" style="fill:#ffb278"/><path d="M465.1,236.7c.2,1.3.7,3.9,1.5,7.2-9.8,17.7-37.5,2.7-43.4-20.4-.5-2.1,2.2-2.8,1.2-5,.8-8.4,1.2-20.5-2.5-26.8l41.5,19.8,4.4,4.2a61.4,61.4,0,0,0-2.7,20.6v.4Z" style="fill:#e5804e"/><path d="M307.9,350.3c3.5.2,6.4,12.5,5.4,26.2-4.2,57.7,12.6,118.5,34.3,119.7,15,.8,28.9-3.4,43.3-4.8,5.8-.5,11.5-.7,17.1-.9,7.6-.3,15.2-.7,22.9-2.4l4-1L413.4,270.8c-9.3-6.8-9.6-10.2-22.2-10.5-10.6-.2-26.5,1.9-36.9,4.7a114.3,114.3,0,0,0-19.5,6.9c-8.5,4.4-15.1,10.2-17.8,19.1C312.4,306.3,307.2,325.4,307.9,350.3Z" style="fill:#601e13"/><path d="M307.9,350.3c3.5.2,6.4,12.5,5.4,26.2-4.2,57.7,12.6,118.5,34.3,119.7,15,.8,28.9-3.4,43.3-4.8,5.8-.5,11.5-.7,17.1-.9,2.8-6.3,3.4-12.6.2-17.9s-12-8.6-17-12.5a191.9,191.9,0,0,1-16.3-14.9c-22.7-22.4-23.3-55.7-23.3-86.2,0-21.8-.2-45.3-5.4-66.3-2.1-8.5-4.3-16-11.4-20.8-8.5,4.4-15.1,10.2-17.8,19.1C312.4,306.3,307.2,325.4,307.9,350.3Z" style="fill:#822316"/><path d="M501.5,571c.7-6.6-1.4-14.2-3-20.5-10.1,1.7-2.6-17.1-.5-20.9-.3-1.3-.7-.2-1.4-.7l11.4-4.7c4.1,8.3,9.2,19.8,9.9,28.9.5,6-4.5,25.8-8.5,29.6-3.7-1.5-9.7.8-13-1.2s-5.1-8.4-5.7-10.8C494.2,569.3,498,569.9,501.5,571Z" style="fill:#ffb278"/><path d="M477,269.5c9.8-9.4,33.6-4.4,34.9,42.9.2,5.8-4.2,101.5-4.3,108.8-.3,36.5,3.2,103.8,4.4,116.4-6.6-.8-9.5.9-16.2.4C491.3,515.7,455.3,290.5,477,269.5Z" style="fill:#ffb278"/><path d="M364.1,313.5c.7,2.7,2.7,25.3,4.2,54,1.3,23.4,2.3,50.8,2.1,74.7-.1,13.6-.7,26.1-1.8,36.1l119.1-1.8c-4.1-5.5-5-17.3-4.2-38,.3-8.1.8-17.4,1.5-28.3,1.2-18.7,4.7-30.8,8.7-40.8.7-2,1.5-3.8,2.3-5.6,3.5-8.1,7-15.4,9.5-24.8.7-3,1.4-6.1,1.9-9.6,3.6-23.1,4.5-56.2-2.7-59.8l-31.3-12.5c-1.1,12.5-13.9,22.9-22.4,22.4-17-1.1-25.1-12.5-34.5-21.2-2.4-2.2-25.5,1.5-52.2,14C361.3,273.7,355.2,281.3,364.1,313.5Z" style="fill:#f5dfd4"/><path d="M480,371a73.5,73.5,0,0,0,13.7-1.6c6.4-1.7,11.4-5,13.1-11.8a27,27,0,0,0,.1-12.1c-.2-1.4-.7-3.7-1.4-6.5-3-11.9-9.1-33.3-9.8-44.5l-14.3,69.9Z" style="fill:#f5dfd4"/><path d="M497.2,287.6l-1.5,6.9C495.5,290.9,495.9,288.3,497.2,287.6Z" style="fill:#f5dfd4"/><path d="M365.6,442l4.8.2c12.2.8,24.3,3.2,36.6,4a208.1,208.1,0,0,0,64.8-5.1c4.2-1,8.2-1.6,11.7-2.6.3-8.1.8-17.4,1.5-28.3,1.2-18.7,4.7-30.8,8.7-40.8,6.4-1.7,11.4-5,13.1-11.8a21.2,21.2,0,0,1-5.5,4.4,47.2,47.2,0,0,1-5.3,1.8c-4.7,1.2-97,18.9-124.2-14.6-1.4,6-2.5,12.1-3.5,18.3C364.6,391.6,364.3,416.5,365.6,442Z" style="fill:#e2c5b7"/><path d="M495,257c10.7,6.1,15.1,13,15.8,17.4,3.3,19.6,1.3,40.9-.8,59.4s-6.2,35.8-11.7,50.3a79.3,79.3,0,0,1-12.7,21.6c.3-9.7,1.6-17.1,1.8-26.8,5.5-14.5,9.2-34.7,10.6-46.5,2-17.6,7.4-38.8.9-55.8-5.8-15.1-25.5-16.1-28.1-21.2-.1-.3-1.4-3.8-1.5-4.2C479.6,248.8,487.9,252.9,495,257Z" style="fill:#822316"/><path d="M316,866c60.9,14.3,155.6,18.8,223.1-.3,1.5-29.5-6.4-105.4-16.7-186.2-14.3-112.6-33.2-234.7-37.9-254,0,0-19.2,8.8-41.6,9.4-18,.5-48.4-1.4-63.8-2.5l-9.6-.7C324.7,546.3,314.7,802.1,316,866Z" style="fill:#617695"/><path d="M363.4,436a34.9,34.9,0,0,0,22.3-8c9.9-8,17.3-21.7,22-40.8,3.7-14.7,5.6-32.4,5.5-50s-.8-38.9-6.4-57.4c-1.3-4.2-5.5-14.5-16.8-19.2s-22.6-2.3-36.8,5.5l5.8,10.6c10.7-5.8,19.9-7.5,26.4-4.9s9.2,9.5,9.8,11.5c5.2,17,5.7,36.8,5.9,54,.2,28.8-5.6,67.3-23,81.3-6.1,4.9-13.2,6.4-21.6,4.5l-2.7,11.7A40.7,40.7,0,0,0,363.4,436Z" style="fill:#822316"/><path d="M316,866c60.9,14.3,155.6,18.8,223.1-.3,1.5-29.5-6.4-105.4-16.7-186.2a45.1,45.1,0,0,1-9.8,7.4c-11,5.8-25,10.2-37.5,10.7-36.2,1.6-60.4-34.8-70.7-65.3-15.3-45.4-21.8-93.1-25.9-140.6a310.3,310.3,0,0,1-.2-52.8c.1-1.3.4-3.7.8-6.5l-9.6-.7C324.7,546.3,314.7,802.1,316,866Z" style="fill:#4f6177"/><path d="M502.8,198.2c.1-5.9-3.4-11.3-7.5-9.6-12,4.8-9.5,20.1-9.5,20.1.3,5.9,6.7,6.4,9.6,4.6S502.7,203.9,502.8,198.2Z" style="fill:#ffb278"/><path d="M493.1,194.2c-1.4,2.6-4,8.5-4,8.5-.7,4.6,6.2,4.3,6.8-1.2.3-2.5-1.5-4.8.7-6.2s3,.7,3.6,2.6C500.9,192.6,495.3,190.2,493.1,194.2Z" style="fill:#e5804e"/><path d="M476.5,132.1c-28-25.6-60.6-1.5-65.8,31.7,0,0-4,30.8,2.1,45.7,4.7,11.2,25.8,36.1,44.9,35.1,9.1-.5,26.4-19.6,31-32.6C496.4,190.1,498.8,152.5,476.5,132.1Z" style="fill:#ffb278"/><path d="M467.3,177.8c.4-2.8,5.8-3.8,10.4-3.7s7.2,2.4,7.9,4.8c-2.1-2-6.1-2.2-8.7-1.8S466.7,180.1,467.3,177.8Z" style="fill:#301f23"/><path d="M444.3,179.8c.6-2.7-3.8-4.8-7.8-5.7s-7.2.6-8.7,2.8c2.6-1.4,6.2-.8,8.3.2S443.9,182,444.3,179.8Z" style="fill:#301f23"/><path d="M461.1,222.1a12,12,0,0,1-10.6-.1c-1,2.9,2.5,5.2,6.3,5S462.5,222.2,461.1,222.1Z" style="fill:#f72828"/><path d="M459.7,221.3c-1.4-.1-1.6,1-3.2,1.1s-1.9-1.7-3.7-.8a5.4,5.4,0,0,1-4.4-.4c3.7,4,11,5.2,15.7.1C461.8,222.3,460.6,221.3,459.7,221.3Z" style="fill:#e52323"/><path d="M452.3,210H454l.8.2h.9l.9.2h3.5l.4-.2h.3l.5-.3.3-.2.2-.2.3-.3v.5a.4.4,0,0,0-.1.3c0,.1-.1.2-.2.3s-.1.2-.1.3l-.3.4-.3.3-.4.3-.5.3-.5.2-1.1.3h-1.2l-1.1-.2-1-.3-.9-.4-.8-.5-.6-.4-.4-.4Z" style="fill:#e5804e"/><path d="M482.7,187.5a20,20,0,0,0-6.8-.2,15.8,15.8,0,0,0-7.1,2.7,7.7,7.7,0,0,0-1.6,1.5,4.1,4.1,0,0,0-.6,2.3c1,.1,1.8-1,2.9-1a28.6,28.6,0,0,0,6.2-.7,30.5,30.5,0,0,0,5.1-1.7c1.3-.5,3.1-.1,5.4-.8C485.9,188.5,484.2,187.9,482.7,187.5Z" style="fill:#e5804e"/><path d="M486.2,189.6c-2.3.7-3.8,1.4-5.1,1.9a33.9,33.9,0,0,1-5.1,1.7,28.6,28.6,0,0,1-6.2.7h-3.2a4.1,4.1,0,0,1,.9-1.2,7.1,7.1,0,0,1,1.5-1.5,16.2,16.2,0,0,1,7.2-2.7,20,20,0,0,1,6.8.2Z" style="fill:#fff"/><path d="M481.1,191.5a33.9,33.9,0,0,1-5.1,1.7,28.6,28.6,0,0,1-6.2.7c-.5-.2-1.4-2.4-.8-2.8a16.2,16.2,0,0,1,7.2-2.7,20,20,0,0,1,6.8.2C483,189.2,481.5,191.1,481.1,191.5Z" style="fill:#3f1411"/><path d="M479.4,190.4a1.2,1.2,0,0,1-.9,1.1c-.4.1-.8-.3-.8-.8a1.3,1.3,0,0,1,.9-1A.7.7,0,0,1,479.4,190.4Z" style="fill:#fff"/><path d="M440,190.4a22.6,22.6,0,0,0-6.2-2.9,18.1,18.1,0,0,0-7.6-.3,9.3,9.3,0,0,0-2,.8,4.8,4.8,0,0,0-1.6,1.9c1,.5,2.2-.2,3.2.2a21.8,21.8,0,0,0,5.9,1.8,26.5,26.5,0,0,0,5.4.5c1.4,0,2.8,1,5.2,1.3C442.5,192.6,441.1,191.3,440,190.4Z" style="fill:#e5804e"/><path d="M442.3,193.7a36.4,36.4,0,0,0-5.4-.2,26.5,26.5,0,0,1-5.4-.5,25.5,25.5,0,0,1-5.9-1.7l-3-1.4,1.4-.8,2-.8a16.7,16.7,0,0,1,7.6.4,17,17,0,0,1,6.2,2.9C441,192.5,441.6,193.1,442.3,193.7Z" style="fill:#fff"/><path d="M436.9,193.5a26.5,26.5,0,0,1-5.4-.5,25.5,25.5,0,0,1-5.9-1.7c-.4-.5-.3-2.8.4-3a16.7,16.7,0,0,1,7.6.4,17,17,0,0,1,6.2,2.9C439.6,192.1,437.4,193.3,436.9,193.5Z" style="fill:#3f1411"/><path d="M435.8,191.8a1.2,1.2,0,0,1-1.2.6.6.6,0,0,1-.5-.9,1.2,1.2,0,0,1,1.2-.7A.8.8,0,0,1,435.8,191.8Z" style="fill:#fff"/><path d="M398.5,199c-.4-5.9,3-11.5,7.6-10.2,13.4,3.9,11.5,19.4,11.5,19.4.1,5.9-6.9,6.9-10.1,5.3S399,204.6,398.5,199Z" style="fill:#ffb278"/><path d="M408.8,194.3c1.7,2.5,4.8,8.1,4.8,8.1,1.1,4.6-6.4,4.8-7.4-.6-.4-2.5,1.3-4.9-1.2-6.2s-3.1.9-3.7,2.9C400.3,193.3,406.2,190.4,408.8,194.3Z" style="fill:#e5804e"/><path d="M446.9,134.1l9.4-16.1c19.1-4.7,35.6,4,43.9,21.4s-1.2,45.5-8.9,61.3c1.4-11.7,1.8-42.6-7.6-51C471.6,138.9,447.4,167.1,446.9,134.1Z" style="fill:#1e1316"/><path d="M412.5,204.3c3.1-9.4,1.4-16.6,4.4-26.6s8.4-17.3,25.1-17.6c8.8-.2,22.1-.1,29.3-17.9l.3-.6c4.3-11.1,3-25-11.7-28.7-8-2-26.8,0-26.8,0-13.1,1.2-21.3,6.6-26.4,14.1a43.4,43.4,0,0,0-6.3,14.6C395.8,160,409.1,186,412.5,204.3Z" style="fill:#301f23"/><path d="M412.5,204.3c3.1-9.4,1.4-16.6,4.4-26.6s8.4-17.3,25.1-17.6c8.8-.2,22.1-.1,29.3-17.9l-2-6.4c-2.1,4.5-2.8,8-8,9.8s-11.1,1-16.2.5-11.5-.6-16.9,1.8-6.1,5.6-9.8,8.4c-1.6-4.5,1-9.1,2.1-13.3-5.6,2.9-7.9,9.5-9,15.1-4.7-5-5.4-15.1-5.7-21.8a31.3,31.3,0,0,1,.9-9.3,43.4,43.4,0,0,0-6.3,14.6C395.8,160,409.1,186,412.5,204.3Z" style="fill:#1e1316"/><path d="M463.8,193.1a14.3,14.3,0,1,1,14.3,14.3A14.3,14.3,0,0,1,463.8,193.1Zm2.2,0A12.1,12.1,0,1,0,478.1,181,12.1,12.1,0,0,0,466,193.1Z" style="fill:#fff"/><path d="M423.4,192.9a14.3,14.3,0,1,1,14.3,14.3A14.3,14.3,0,0,1,423.4,192.9Zm2.2,0a12.1,12.1,0,1,0,12.1-12.1A12.1,12.1,0,0,0,425.6,192.9Z" style="fill:#fff"/><path d="M451.6,193.3c1.4-2.3,3.2-3.6,5.3-3.8s5,1,7.2,3.3l1.6-1.5c-2.8-2.9-6-4.2-9-3.9s-5.2,1.9-7,4.7Z" style="fill:#fff"/><path d="M367.7,594.3c2.1,1.8,6.2,2.6,8.9,3.5s5.3,2.2,7.9,2.9c-1.3,3.4-5.7,6.1-9.1,7.1s-8.4,3.7-9.7,1Z" style="fill:#ffb278"/><polygon points="427.2 511.3 322.1 491.2 321.7 536 423.8 525.6 427.2 511.3" style="fill:#2f4c1c"/><polygon points="324.6 493.5 425.4 511.4 426.2 512.3 419.8 523.1 324 500.9 324.6 493.5" style="fill:#e8e2dd"/><polygon points="412.1 511.3 314.7 493.7 314.5 593 418.9 616 412.1 511.3" style="fill:#47722b"/><path d="M412.1,511.3l.7.6a10.5,10.5,0,0,0,6.1,1.8,10.8,10.8,0,0,0,5.9-1.6l1-.8h1.4v99.3a4.7,4.7,0,0,1-2.4,3.8,10.8,10.8,0,0,1-5.9,1.6c-4.5,0-8.3-2.4-8.3-5.4V511.3Z" style="fill:#6baa43"/><path d="M412.8,511.9v96.4c0,3.1,2.9,5.5,6.5,5.5a7.1,7.1,0,0,0,4.6-1.6,4.9,4.9,0,0,0,1.9-3.9v-97l-1,.8a10.8,10.8,0,0,1-5.9,1.6A10.5,10.5,0,0,1,412.8,511.9Z" style="fill:#fffbf8"/><polygon points="352.7 512 352.7 588.5 333.9 584.2 333.9 582.8 333.9 508.4 352.7 512" style="fill:#f72e1e"/><path d="M339.3,565.7a86.7,86.7,0,0,0,2.1-11.1l17.4,6.6c2.4,8.2,13.3,15,14.1,24.9.6,6.1,3.5,12,1.3,12.9-6,2.3-6-10.5-8.1-12.5.3,3.4,3.1,21.9,2.2,22.8s-5.7,1.1-7.5-1.1a6.6,6.6,0,0,1-4.2,1.4c-1.3-.1-2.6-1.3-3.8-1.3s-2.8,1.2-5,.6a14.8,14.8,0,0,1-3.8-2.3c-4.4,2-4.3-3.9-5.3-6.8S337.2,573.7,339.3,565.7Z" style="fill:#ffb278"/><path d="M352.6,486.9a45.3,45.3,0,0,0,13.6.7c-2.7,28-6.8,70.4-5.5,85.9-5,.5-13-.2-20.7-.3,0-11.8.8-59.7,0-91.5C345.5,483.9,346.5,485.5,352.6,486.9Z" style="fill:#ffb278"/><path d="M362.1,275.5c11.1-7.8,33.9.7,28.2,47.6-.8,5.8-9,41.9-10.1,49.1-5.8,36.1-19,162.5-19.6,175.2-6.5-1.8-13.5-2-20-3.6C339.4,521.1,337.5,293,362.1,275.5Z" style="fill:#ffb278"/><path d="M758.1,375.7c-19.4,6.6-41.3,6.6-58.8-3.4l28.3-140.5C772.3,254.8,749.7,335.4,758.1,375.7Z" style="fill:#3b3348"/><path d="M544.3,558.2c-1.4-32.2,2.2-70,11.1-115.2a1049.7,1049.7,0,0,1,43.2-154.4l.4-1.1c6.7-18.5,13-36.1,22.2-53.3a118.4,118.4,0,0,1,10.1-14.9,148.5,148.5,0,0,1,18.2-19,8.2,8.2,0,0,0-7.9-3.2c-3.2.4-8.6,2.4-18.4,14.9a156.9,156.9,0,0,0-11.6,17.1c-9.5,18.1-16,36-22.9,55l-.3,1a1054.9,1054.9,0,0,0-43.8,156.3c-8.8,45.3-12.6,83.4-11.3,116.1Z" style="fill:#68300b"/><path d="M772.2,978.1c-6,4.3-48.8,3.4-62.4,1.1h-.1a15.5,15.5,0,0,1-4.4-1.2.1.1,0,0,0-.1-.1c-1.8-1.8-1.3-8.9.2-17.5,2.4-13.7,7.3-31,9.2-35.4l18.9,2.4C745.2,956.6,777.3,959.3,772.2,978.1Z" style="fill:#260f0e"/><path d="M705.2,977.9a.1.1,0,0,1,.1.1,15.5,15.5,0,0,0,4.4,1.2h.1c13.6,2.3,56.4,3.2,62.4-1.1a13.1,13.1,0,0,0-.2-8.1l-.3,1c-5.9,4.3-48.7,3.4-62.3,1.1h-.1a15.5,15.5,0,0,1-4.4-1.2c0-.1-.3-.1-.8-.2C703.9,974.3,704.2,976.9,705.2,977.9Z" style="fill:#fff"/><path d="M705.9,873.1l30.7-14.7c-.9,21.3.8,81.1-1.3,85.2,0,0-9.1,2.8-13,.7C714.3,939.9,704.5,886.6,705.9,873.1Z" style="fill:#d88d5b"/><path d="M735,918.8c9.9.4,13.4,4.5,11,13-1,4-4.8,20.4-1.3,21.5l-19.4.6C721.8,943.9,714.9,917.8,735,918.8Z" style="fill:#260f0e"/><path d="M554.2,978.1c6,4.3,48.8,3.4,62.3,1.1h.2A14.5,14.5,0,0,0,621,978h.2c1.8-1.8,1.3-8.9-.2-17.5-2.4-13.7-7.3-31-9.3-35.4l-18.8,2.4C581.2,956.6,549,959.3,554.2,978.1Z" style="fill:#260f0e"/><path d="M621.2,977.9H621a14.5,14.5,0,0,1-4.3,1.2h-.2c-13.5,2.3-56.3,3.2-62.3-1.1a12.4,12.4,0,0,1,.2-8.1c.1.4.1.7.2,1,6,4.3,48.8,3.4,62.4,1.1h.1a16.7,16.7,0,0,0,4.4-1.2c0-.1.3-.1.8-.2C622.4,974.3,622.2,976.9,621.2,977.9Z" style="fill:#fff"/><path d="M620.5,873.1l-30.7-14.7c.8,21.3-.8,81.1,1.3,85.2,0,0,9,2.8,12.9.7C612,939.9,621.8,886.6,620.5,873.1Z" style="fill:#d88d5b"/><path d="M591.3,918.8c-9.9.4-13.3,4.5-11,13,1.1,4,4.8,20.4,1.4,21.5l19.3.6C604.5,943.9,611.5,917.8,591.3,918.8Z" style="fill:#260f0e"/><path d="M581.4,909.9l38.1-.7c1.2-32.6,3.7-71.5,7.1-117.3,4.4-59,12.8-159.6,27.2-220.4.8-3.3,1.6-6.4,2.4-9.5.4-1.2.7-2.4,1-3.6s.1-.4.2-.6l.6-2.2c.1.6.3,1.1.4,1.7l.3,1.2.6,2.4c10.2,44,29.9,131.9,27.3,223.8-1.1,41,8.6,78.5,15.4,103.2,2.6,9.4,4.7,16.9,5.7,22l35.3-.7c-1.2-24.4-4.1-71.1-7.1-125.4-3.3-58.7-2.9-164.1-8.4-248.5-.2-1.6-.3-3.1-.4-4.6-1.5-21.9-3.4-42.2-5.9-59.9l-134.4-2.7c-1.7.7-1.7,24.2-1.9,61.2v4.5c-.4,61.8-1.6,158-12,249.1C566.4,840.1,581.3,889.7,581.4,909.9Z" style="fill:#086a97"/><path d="M671,551.7l-12.6,5.6.3,1.2.6,2.4c10.2,44,29.9,131.9,27.3,223.8-1.1,41,8.6,78.5,15.4,103.2,0,.1.1.1.1.2-2.6-8.6-2.4-18.1-3.3-27.2-5.2-51.7-1.7-106.6-1.7-160.3C697.1,653.5,690.9,591.4,671,551.7Z" style="fill:#084b63"/><path d="M655.2,558l2,.4h6.2a41.6,41.6,0,0,1,6.4.3l2,.4.4-1.7c2.6-9.2,1.9-19.6,1.3-29.6l-.3-4.4a163.6,163.6,0,0,0-2.9-18.9c-1.3-6.4-2.5-12.3-2.7-17.3h-4.2c.2,5.2,1.4,11.3,2.7,17.8a157.2,157.2,0,0,1,2.9,18.5l.3,4.4c.6,9.2,1.2,18.7-.8,27a41,41,0,0,0-5-.2h-4a12.9,12.9,0,0,1-4.2-.6C655.3,555.6,655.3,556.8,655.2,558Z" style="fill:#0b8bb7"/><path d="M655.2,558a116.3,116.3,0,0,1-1.4,13.5c1.1-4.6,2.3-9,3.4-13.1h1.5l.6,2.4c0-.8.1-1.6.1-2.4s.1-2.4.1-3.6c.5-17.8-2-36.8-4.6-52.9l-4.2.4c2.6,15.9,5,34.5,4.6,51.9C655.3,555.6,655.3,556.8,655.2,558Z" style="fill:#0b8bb7"/><path d="M584.9,533.8a90.9,90.9,0,0,0,11.2.7c10.9,0,18.5-2.1,23-6.4s7-12.1,7.6-22.2-.9-17.9-3.7-22.7l-3.9,2.3c2.3,3.9,3.6,12,3.1,20.2s-2.8,16-6.2,19.2-15.7,6.1-31.1,4.4Z" style="fill:#0b8bb7"/><path d="M705.5,507.3c.6,10.1,3.4,18.2,7.6,22.2s8,4.9,14.4,5.8c-.2-1.6-.3-3.1-.4-4.6-4.9-.8-8.6-2.3-10.9-4.5s-5.7-10.4-6.2-19.2.8-16.2,3.1-20.1l-3.9-2.3C706.4,489.3,705,498,705.5,507.3Z" style="fill:#0b8bb7"/><rect x="701" y="897.5" width="46.6" height="21.49" style="fill:#0b8bb7"/><rect x="577.4" y="896.6" width="46.6" height="21.49" style="fill:#0b8bb7"/><path d="M656.2,562c.4-1.2.7-2.4,1-3.6s.1-.4.2-.6l-1.2.5Z" style="fill:#095e7c"/><path d="M573.7,298.9c2.6,14.4,4.5,29.9,5.9,45.7.8,8.9,1.4,17.9,1.9,26.9q.6,10.5.9,21c.1,1.1.1,2.2.1,3.4a6.6,6.6,0,0,1,.1,1.4c.1,2.3.1,4.5.2,6.7v2.3c0,1.5.1,2.9.1,4.3v2.7a24.4,24.4,0,0,0,.1,2.7v23.6c-.1,3.5-.1,6.9-.2,10.2,0,1.1,0,2.3-.1,3.4v.7c0,1.2,0,2.4-.1,3.6s0,2.2-.1,3.3v1.9c-.2,5.5-.4,10.6-.6,15.1a2.8,2.8,0,0,0-.1.9c-.1,2.5-.3,4.8-.4,6.9s-.1,1.5-.2,2.3-.1,2.3-.2,3.4v.8c0,.4-.1.8-.1,1.2s-.1.7-.1,1-.1.7-.1,1a14.1,14.1,0,0,0-.2,1.8,2,2,0,0,0-.1.7v.2a.4.4,0,0,0-.1.3c0,.2-.1.5-.1.7l.6.2.4.2,1,.3.4.2h.9l.6.2h1.2l.8.2h1.2l2.1.2h2.4c10.1.1,19.9-3,27.8,1.5,62.7,35.8,90.7,15.7,105.6,7.1a.4.4,0,0,0,.1-.3c.1-.2.1-.5.2-.7.3-1.9.7-4.3.9-7.1a2.8,2.8,0,0,0,.1-.9c.1-.7.1-1.4.2-2.2v-.8a19.5,19.5,0,0,0,.2-2.5c0-.5.1-.9.1-1.4s.1-1.5.1-2.3a4.9,4.9,0,0,1,.1-1.2c0-1,0-2,.1-3.1v-1.4c0-.5.1-1,.1-1.5v-2.5c0-.6.1-1.1.1-1.6v-3.6h0a3.4,3.4,0,0,1,.1-1v-9c0-8,0-16.2-.2-24-.1-4.9-.2-9.6-.3-13.9s-.4-10.6-.6-14.6-.4-8.6-.6-12.6c-.2-6.6-.3-12.6-.2-18.1,0-10.9.5-20,1.2-27.9,3.5-35.8,12.7-44.4,12.7-71.3s3.4-44.7-23.3-61.8c-5.3-3.3-11.8-8.1-17.6-11.4l-2-1.1-48.5-17.5c.5,1.9-.9,3.9-3.5,5.9-11.3,8.4-45.4,17.5-51.5,21.1-8.9,5.4-14.4,9.6-18.3,19.6a68.2,68.2,0,0,0-3.3,10.7C569.5,259.5,569.2,273.6,573.7,298.9Z" style="fill:#3b3348"/><path d="M726.9,147.2a60.8,60.8,0,0,1,1.2-8c1.6-7.8,10.5-13.8,14.7-9.4s4.2,12.2,2.6,17-6.7,13-13,11.4S726.7,151,726.9,147.2Z" style="fill:#ffb278"/><path d="M730.9,139.9c.1-.8,2-3.6,2.5-4.4,3.6-5.7,9.6-3.7,9.9,2.6-2.1-5.5-6-1.3-8.3,1.6,2,.1,2.8,3.9,2.4,5.5s-3,3.2-5.3,3.6v-.3c.4-2,2.8-4.5,1.3-7.1S730.8,141.5,730.9,139.9Z" style="fill:#e5804e"/><path d="M733.5,74c7.5,5.5,10.8,15.6,10.4,25s-5.3,32.9-11.8,38.2c-.5-7.1-1.3-30.5-4.6-37-2.2-4.4-6.5-10.5-10.7-13.3Z" style="fill:#260f0e"/><path d="M650.4,142.6a100.9,100.9,0,0,1,1.2,25.9,82.6,82.6,0,0,1-7,29.7c3.2,6.5,8.8,14.8,20.9,23.3,7,4.8,16.9,8.9,25.5,7.7,10.1-1.4,11.9-9.5,7.6-18.1-2.3-4.7-2.5-4.6-2.2-9.8a12.8,12.8,0,0,1,.1-1.9c.2-4.8.6-11,.7-14.1l-46.7-44.7-.7-.6Z" style="fill:#ffb278"/><path d="M650.4,142.6c1.6,8.2,2.5,7.8,1.9,16.7,5.7,44,41,43.5,44.2,40.1.2-4.8.6-11,.7-14.1l-46.7-44.7A12.7,12.7,0,0,0,650.4,142.6Z" style="fill:#e5804e"/><path d="M735.5,111.9c1.7-28-23.7-59.2-55.8-49.8-6.8,2-17.3,8.9-21.4,15.3,0,0-5.2,16.5-7.6,45.2-1.4,15.6-.2,18.3,1,37.7,1.5,23.3,37,39.6,51.9,36.5s23-22.8,27.1-31.7C736.3,152.4,734.7,125.4,735.5,111.9Z" style="fill:#ffb278"/><path d="M685,123.9c-1.2-2.3-3-4-5.1-3.7a13,13,0,0,0-7.2,4,24.5,24.5,0,0,0-2.9,4c-1.8,3-1.2,4.9-1.2,4.9s1.1-2.3,1.8-2.2a41.3,41.3,0,0,0,13.6.4l2.5-.5A12.1,12.1,0,0,0,685,123.9Z" style="fill:#e5804e"/><path d="M686.7,133.5l-2.4.5a52.1,52.1,0,0,1-13.7-.3l-2-.4,1.4-1.8a18.8,18.8,0,0,1,2.9-3.2,14,14,0,0,1,7.2-3.2c2.1-.2,3.9,1.1,5.2,2.9A8,8,0,0,1,686.7,133.5Z" style="fill:#fff"/><path d="M685.3,128.8a14.2,14.2,0,0,1-1,5.2,52.1,52.1,0,0,1-13.7-.3,18,18,0,0,1-.6-2.2,18.8,18.8,0,0,1,2.9-3.2,14,14,0,0,1,7.2-3.2c2.1-.2,3.9,1.1,5.2,2.9Z" style="fill:#260f0e"/><path d="M676.1,131a1.2,1.2,0,0,1-1,1.2,1.1,1.1,0,0,1-1-1.2,1,1,0,0,1,1-1.1A1.1,1.1,0,0,1,676.1,131Z" style="fill:#fff"/><path d="M728.2,123.2c-1.1-2.2-2.8-3.9-4.8-3.7a13,13,0,0,0-6.6,4,25,25,0,0,0-2.7,4c-1.6,3.1-1,4.9-1,4.9s.9-2.3,1.6-2.1a37.4,37.4,0,0,0,12.5.4,15.5,15.5,0,0,0,2.3-.6A13,13,0,0,0,728.2,123.2Z" style="fill:#e5804e"/><path d="M729.7,132.9l-2.3.5a47.3,47.3,0,0,1-12.5-.4l-1.8-.3s.5-.9,1.2-1.9,2-2.5,2.7-3.2a12.8,12.8,0,0,1,6.6-3.2c2-.2,3.6,1.2,4.8,3A8.4,8.4,0,0,1,729.7,132.9Z" style="fill:#fff"/><path d="M728.4,128.2a14.6,14.6,0,0,1-1,5.2,47.3,47.3,0,0,1-12.5-.4l-.6-2.2c.9-1.1,2-2.5,2.7-3.2a12.8,12.8,0,0,1,6.6-3.2c2-.2,3.6,1.2,4.8,3Z" style="fill:#260f0e"/><path d="M719.9,130.4a.9.9,0,1,1-1.8,0c0-.7.4-1.2.9-1.2S719.9,129.7,719.9,130.4Z" style="fill:#fff"/><path d="M706,139.1c-.8,1.5.1,13.6.9,15.9-1.9,1.4-6.5,1.3-8.4,2.7,3.3.3,7,.6,11.5-1.3Z" style="fill:#e5804e"/><path d="M663.6,121.6c5.8-1.9,12.5-1.1,18.6-.4,2.7.3,7.1,2,7.8-1.2C693.3,105.2,659.2,111,663.6,121.6Z" style="fill:#260f0e"/><path d="M735.6,121.7c-5-1.7-10.8-1-16.2-.3-2.3.2-6.2,1.8-6.8-1.2C709.6,106.3,739.4,111.9,735.6,121.7Z" style="fill:#260f0e"/><path d="M681.8,160.5c6.6,9.8,14.4,13.2,18.7,13.2a15.1,15.1,0,0,0,7.1-1.6c3.2-1.6,5.6-4.5,7.2-8.4a32,32,0,0,1-6.3,1A57.7,57.7,0,0,1,681.8,160.5Z" style="fill:#e5804e"/><path d="M681.8,160.5c6.6,9.8,14.4,13.2,18.7,13.2a15.1,15.1,0,0,0,7.1-1.6,37.4,37.4,0,0,1,.9-7.4A57.7,57.7,0,0,1,681.8,160.5Z" style="fill:#fff"/><path d="M641.1,83.3c-7,21.4,5.4,46.4,7.8,59.5,2.6-4.6,6-7.5,7-12.8,1.6-8.2-.1-16.5,5.8-19.8,8.3-4.6,6.4-5.6,9.4-14.2,1.3-3.6,8.4-9.6,11.5-8,6.4,3.2,14.3,5.2,21.8,6.3a156.6,156.6,0,0,0,28.5,1.4c4.2-1.2,25.3-7.4,24.9-35.4-4,6.1-9.3,8.6-16.3,8,2.8-6.2,7.7-19,4.7-25.4-2,15.5-24.8,9.3-34,8.1-51.3-7.2-60.9,9.1-63.7,16.2l-1,2.6c-4.5-3.2-9.3-3.3-14.2-2.1,2.3,2,4.7,4.1,6.9,6.3-2.8.9-6.2.9-8.1,3.9C636.2,76.7,642.6,78.8,641.1,83.3Z" style="fill:#3f1616"/><path d="M641.1,83.3c-7,21.4,5.4,46.4,7.8,59.5,2.6-4.6,6-7.5,7-12.8,1.6-8.2-.1-16.5,5.8-19.8,8.3-4.6,6.4-5.6,9.4-14.2,1.3-3.6,8.4-9.6,11.5-8,6.4,3.2,14.3,5.2,21.8,6.3-5.3-3.9-11.2-10.3-15.1-11.9-8.4-3.4-15.7-2.7-23.7-.2.7-3.3,3.5-6.1,4.6-9.1-4.9.3-9.1,4.3-12.8,7.3-.2-3.2.1-6.3-1-9.1-1.5,1.1-2.8,2.9-4.2,4a22.5,22.5,0,0,0-3.7-8.1l-1,2.6c-4.5-3.2-9.3-3.3-14.2-2.1,2.3,2,4.7,4.1,6.9,6.3-2.8.9-6.2.9-8.1,3.9C636.2,76.7,642.6,78.8,641.1,83.3Z" style="fill:#160808"/><path d="M654.3,144.2a68.7,68.7,0,0,0-1.2-8.6c-1.8-8.4-11.2-14.7-15.7-10s-4.5,13-2.8,18.1,7.2,13.9,13.9,12.3S654.6,148.2,654.3,144.2Z" style="fill:#ffb278"/><path d="M650.1,136.4c-.1-.9-2.2-3.9-2.7-4.7-3.8-6.1-10.3-4-10.6,2.7,2.3-5.9,6.4-1.3,8.9,1.8-2.1,0-3,4.2-2.5,5.8s3.2,3.4,5.6,3.8v-.2c-.4-2.1-3-4.9-1.3-7.6S650.3,138.1,650.1,136.4Z" style="fill:#e5804e"/><path d="M582.4,392.5c.1,1.1.1,2.2.1,3.4a6.6,6.6,0,0,1,.1,1.4c.1,2.3.1,4.5.2,6.7v2.3c0,1.5.1,2.9.1,4.3v2.7a24.4,24.4,0,0,0,.1,2.7v3.3a71.8,71.8,0,0,1,20.6.8c17,3.3,34,8.3,50.8,11.8,24.9,5.2,49.8,5.1,72.6-3.2-.2-5.6-.4-10.6-.6-14.6s-.4-8.6-.6-12.6c-22.9,8.6-46.2,8.8-71.4,3.6-16.8-3.5-33.8-8.6-50.8-11.9A72.3,72.3,0,0,0,582.4,392.5Z" style="fill:#a18bbc"/><path d="M579.6,344.6c.8,8.9,1.4,17.9,1.9,26.9a78.8,78.8,0,0,1,13.6,1.1c19.1,3.4,38,8.4,56.8,11.9,25.1,4.7,50.3,5,73.7-1.1,0-10.9.5-20,1.2-27.9-24.1,7.1-48.5,7.1-74.9,2.1-18.8-3.5-37.7-8.5-56.8-11.8A82.2,82.2,0,0,0,579.6,344.6Z" style="fill:#a18bbc"/><g style="mix-blend-mode:multiply;opacity:0.4"><path d="M573.7,298.9c2.6,14.4,4.5,29.9,5.9,45.7.8,8.9,1.4,17.9,1.9,26.9q.6,10.5.9,21c.1,1.1.1,2.2.1,3.4a6.6,6.6,0,0,1,.1,1.4c.1,2.3.1,4.5.2,6.7v2.3c0,1.5.1,2.9.1,4.3v2.7a24.4,24.4,0,0,0,.1,2.7v23.6c-.1,3.5-.1,6.9-.2,10.2,0,1.1,0,2.3-.1,3.4v.7c0,1.2,0,2.4-.1,3.6s0,2.2-.1,3.3v1.9c-.2,5.5-.4,10.6-.6,15.1a2.8,2.8,0,0,0-.1.9c-.1,2.5-.3,4.8-.4,6.9s-.1,1.5-.2,2.3-.1,2.3-.2,3.4v.8c0,.4-.1.8-.1,1.2s-.1.7-.1,1-.1.7-.1,1a14.1,14.1,0,0,0-.2,1.8,2,2,0,0,0-.1.7v.2a.4.4,0,0,0-.1.3c0,.2-.1.5-.1.7l.6.2.4.2,1,.3.4.2h.9l.6.2h1.2l.8.2h1.2l2.1.2h2.4c10.1.1,19.9-3,27.8,1.5,62.7,35.8,90.7,15.7,105.6,7.1a.4.4,0,0,0,.1-.3c.1-.2.1-.5.2-.7.3-1.9.7-4.3.9-7.1a2.8,2.8,0,0,0,.1-.9c.1-.7.1-1.4.2-2.2v-.8a19.5,19.5,0,0,0,.2-2.5c0-.5.1-.9.1-1.4s.1-1.5.1-2.3a4.9,4.9,0,0,1,.1-1.2c0-1,0-2,.1-3.1v-1.4c0-.5.1-1,.1-1.5v-2.5c0-.6.1-1.1.1-1.6v-3.6h0a3.4,3.4,0,0,1,.1-1v-9c0-8,0-16.2-.2-24a42.9,42.9,0,0,1-4.8,3.6c-20.4,13.6-58.9,20.7-79.3,4.1-17.4-14.2-27-37.4-32.7-59-12.1-46.4,13.5-74-2.7-122.3-5.6-16.9-31.4.6-36.3-19.3C569.5,259.5,569.2,273.6,573.7,298.9Z" style="fill:#3b3348"/></g><path d="M580.5,492.9l14.5-5.8c9,16.8,36.1,32.6,19.7,41-7.6,3.9-18,6.1-22.4,2.1C584.6,523.2,581.1,502.9,580.5,492.9Z" style="fill:#ffb278"/><path d="M530.6,380c11.1-2,28.4,9.6,33,18.2,15.6,29.3,18.5,68.8,36.4,96.6l-15.8,11.3c-23.9-27.3-50.1-61.3-61.3-95.9C519.9,400.8,517.1,382.4,530.6,380Z" style="fill:#ffb278"/><path d="M531.4,325.4c3.3-13.3,7.8-22,13-34.7,3.8-9.3,7.4-25.2,15.5-31.5l31.9,46.6c-5.7,6.4-33.7,96.9-41.9,103s-19.4,13.4-25.4,4.9C512.5,396.7,526.7,344.1,531.4,325.4Z" style="fill:#ffb278"/><path d="M613.1,501c4.1,2.7,8.9,7.3,14.4,8.4,8,1.5,3.6,8.1-3.2,8.1-4.7,0-14.1-6.5-15.4-6l-13.4-16C599.8,497.4,608.7,498,613.1,501Z" style="fill:#ffb278"/><path d="M603.8,553.7c4.8-8.2,5.6-16.7,2.3-24.1s-10.9-13.3-20.6-15.4c-20.8-4.5-24.4,5.1-29,17.2-.9,2.4-1.8,4.8-3,7.4l6.6,2.9c1.2-2.8,2.2-5.4,3.1-7.8,4.4-11.6,6-15.9,20.8-12.7,7.4,1.6,13.1,5.7,15.6,11.2s1.6,11.6-2,17.7Z" style="fill:#68300b"/><path d="M493.5,650c31,19.7,69,35.3,105.4,32.9l29.5-131.6c-5.3-2.7-14.1-5.5-24.4-8.2l-10-2.4c-11.7-2.6-24.3-4.9-35.6-6.3-3.9-.5-7.6-.5-10.9-1.1-5.9-1.1-14,.7-17.6,4.3C512.8,561.6,490.7,628.8,493.5,650Z" style="fill:#68300b"/><path d="M607.2,567.1c7.7-14.7,22.7-26.7,29.1-3.5,5,18.1-7.7,102.9-17.7,119.9,0,0-26.9,5.1-32.2-2.7C574.6,663.9,598.8,583.1,607.2,567.1Z" style="fill:#ad4b14"/><path d="M564.7,614.1l9.3,1c1.7-16.6,5-29.2,11.5-43.4,4.7-10.5,10.4-17.9,16.9-26.5l1.6-2.1-10-2.4c-6.2,8.3-12.1,16.2-17.1,27.1A139.5,139.5,0,0,0,564.7,614.1Z" style="fill:#ad4b14"/><path d="M522.6,600.7l9.3.9c1.7-16.5,5-29.1,11.5-43.3,4.3-9.4,9.3-16.4,15-23.9-3.9-.5-7.5-.9-10.9-1.1a117.9,117.9,0,0,0-12.7,21.1A138.9,138.9,0,0,0,522.6,600.7Z" style="fill:#ad4b14"/><path d="M612.3,579.5a8.9,8.9,0,0,0,6.1,11.1l.8.2a8.8,8.8,0,0,0,11.1-6.1l3.5-12a8.9,8.9,0,0,0-6.1-11.1l-.8-.3a9,9,0,0,0-11.1,6.1Z" style="fill:#441e08"/><path d="M616.2,572.6c17.6-27.7,33.3-62.8,47.7-106.9,16-48.8,28.4-101.5,36.9-156.6l.2-1.2c2.9-19.5,5.8-38,5.8-57.5a120.5,120.5,0,0,0-2.1-17.9,146.9,146.9,0,0,0-7.8-25.3,9.5,9.5,0,0,1,9.2.9c2.8,1.9,6.9,6.2,10,21.8a127.6,127.6,0,0,1,2.3,20.5c0,20.4-2.9,39.3-5.9,59.3l-.2,1.1c-8.6,55.8-21.1,109.1-37.3,158.6-14.5,44.1-30.2,79.5-47.9,107.8Z" style="fill:#68300b"/><path d="M563.5,250.5c8.4-14.5,32.1-48,47.5-21.1,5.9,10.2,5.1,27.8,2.9,38.7-3.5,17.2-7.8,36.2-16,52.1l-13.8,35.3c-15.1-3.2-42.8-11.5-56.9-18.6A370.4,370.4,0,0,1,563.5,250.5Z" style="fill:#3b3348"/><path d="M792.6,416c-3.3,9.4-15.9,10.1-21.5,9.1-7.3-1.3-15.1-6.9-20.6-16.5Z" style="fill:#ffb278"/><path d="M619.9,412.2a5.8,5.8,0,0,0,5.8,5.8H847.8a5.8,5.8,0,0,0,5.8-5.8h0a5.8,5.8,0,0,0-5.8-5.7H625.7a5.8,5.8,0,0,0-5.8,5.7Z" style="fill:#bababa"/><path d="M725.4,303.1l-20,102.2a5.6,5.6,0,0,0,5.6,6.9H848.1a9,9,0,0,0,8.4-6.9l21.8-102.2a5.4,5.4,0,0,0-5.5-6.8H733.7A8.7,8.7,0,0,0,725.4,303.1Z" style="fill:#bababa"/><path d="M732.4,303.1,712.3,405.3c-.7,3.8,1.7,6.9,5.5,6.9H848.1a9,9,0,0,0,8.4-6.9l21.8-102.2a5.4,5.4,0,0,0-5.5-6.8H740.7A8.7,8.7,0,0,0,732.4,303.1Z" style="fill:#e2e2e2"/><path d="M789,338.8c-1,4.9,3.3,8.9,9.6,8.9s12.3-4,13.3-8.9-3.3-8.9-9.6-8.9S790,333.9,789,338.8Z" style="fill:#bababa"/><path d="M781.6,410.1c-2.9-6.2-.1-18.4,8.7-8.5s-2.5,19.8-5.5,21.7C780.2,426.1,764.9,423.9,781.6,410.1Z" style="fill:#ffb278"/><path d="M792.5,408.6c-2.5-7-.1-21,7.3-9.7s-2.1,22.7-4.6,24.8S778.3,424.4,792.5,408.6Z" style="fill:#ffb278"/><path d="M800.9,409.3c-2.5-7.1-.1-21.1,7.4-9.8s-2.1,22.7-4.7,24.9S786.7,425,800.9,409.3Z" style="fill:#ffb278"/><path d="M809.4,409.2c-2.5-7-.2-21,7.3-9.7s-2.1,22.7-4.6,24.8S795.2,425,809.4,409.2Z" style="fill:#ffb278"/><path d="M301.9,422c-5.1,12.7-6.2,29.7-6.2,43.7l19.5,6.1C315.2,456.8,311.2,418.5,301.9,422Z" style="fill:#f9a56b"/><path d="M322.5,487.3c-1.1-4.2-3.2-10.6-3.9-14.9-1.1-6.5-5.4-10.7-9.5-15.7l-7.2,18.9c-1.4,8.9,7.4,12.3,11.5,17.3,2.6,3.2,11.3,12.6,13.5,4.3C327.5,494.7,323.2,489.8,322.5,487.3Z" style="fill:#f9a56b"/><path d="M244.4,972.6c-15.7,9-77.4,2.1-83.5-1.4a8.8,8.8,0,0,1-.6-3.3c0-1.3,0-2.9.1-4.6.4-6.4,1.3-13.8-.4-13.6l35-10.4c5,9.7,6.8-1,13.5,7.2s16.2,10.3,26.5,11.7c5.1.7,8.5,2.6,10.4,4.9A6.5,6.5,0,0,1,247,966,5.5,5.5,0,0,1,244.4,972.6Z" style="fill:#0e0e11"/><path d="M247,966a5.1,5.1,0,0,1-2.8,4.3c-15.7,9-77.4,2.2-83.6-1.3l-.3-1.1c0-1.3,0-2.9.1-4.6,7.5,3.5,67.8,10.1,83.4,1.2a7.3,7.3,0,0,0,1.6-1.4A6.5,6.5,0,0,1,247,966Z" style="fill:#fff"/><path d="M207.2,935.7c-2.1-5.2-4.4-6.9-11.4-6.4s-10.3,6.7-9.5,12-1.1,7,.4,10.9l30.8,1.1A63,63,0,0,1,207.2,935.7Z" style="fill:#18181e"/><path d="M287.3,594.2c-9.2,34.2-65,261.4-78.7,328.4-.3,2.9-.5,5.8-.7,8.5-.3,6.6-3.4,8.2-9.5,9.5s-13.4,2.9-19.6,6l-.3.2a14.1,14.1,0,0,0-2.4,1.3c-4.6,2.7-10.9,6.4-14.6,3.2s-1.8-19.5-1.5-23.8c3.2-64.5,24.6-137.9,25.7-143.6,15.7-76.9,17.4-181.8,15.6-252.4-.4-17.1-12.3-25.3-10.3-39.9,3.9-28.6,7.5-37.5,21.7-69.2l101.5,64C310.3,524.2,297.2,557.4,287.3,594.2Z" style="fill:#313944"/><path d="M292.1,461.4c0,24.7-2.3,50.4-6.4,70.3l-.3,1.3-1.2.3a51.9,51.9,0,0,1-7.9,1l-4.1.3c.1-1.4.2-2.7.2-4.1l4-.2c2-.2,4-.4,5.6-.7,3.9-19.5,6.1-44.3,6.1-68.2Z" style="fill:#18181e"/><path d="M271.1,583.5s.7-38.9,1.1-48.9c.1-1.4.2-2.7.2-4.1.7-21.1-.4-40.7-4.9-50.5l11.7-2C284.4,489.2,271.7,577.5,271.1,583.5Z" style="fill:#18181e"/><path d="M283,976.7c-18,9-88.7,2.1-95.8-1.4a9.3,9.3,0,0,1-.6-3.3,36.4,36.4,0,0,1,.1-4.6c.4-6.4,1.5-13.8-.5-13.7l40.1-10.3c5.8,9.7,7.9-1.1,15.5,7.2s18.5,10.3,30.4,11.7c5.8.7,9.7,2.6,11.9,4.9a8.5,8.5,0,0,1,1.9,2.9A5.4,5.4,0,0,1,283,976.7Z" style="fill:#18181e"/><path d="M286,970.1a5.5,5.5,0,0,1-3.3,4.3c-18,9-88.7,2.2-95.8-1.3l-.3-1.1a36.4,36.4,0,0,1,.1-4.6c8.5,3.5,77.7,10.1,95.5,1.2a7.2,7.2,0,0,0,1.9-1.4A8.5,8.5,0,0,1,286,970.1Z" style="fill:#fff"/><path d="M270,576.8c-3.3,35.3-35.1,282.7-41.8,350.9,0,2.9.1,5.8.2,8.5.3,6.5-2.6,8.5-8.5,10.4s-13,4.3-18.9,8l-.3.2-2.2,1.6c-4.3,3.2-10.2,7.5-14.1,4.7s-4.1-19.2-4.1-23.5c0-9,1.7-26.3,2.3-32.4h.3c.7-35.6,6.5-83.2,7.1-89,7.6-78.1-.6-206.9-9.7-276.9-2.2-17-14.8-23.8-14.4-38.6.9-28.8,3.6-38.1,14.4-71l97.3,17.1C277.6,484.9,273.3,541.1,270,576.8Z" style="fill:#384150"/><path d="M207.7,688c-.5,15.5-.8,31.3-1,46.7-.3,20.3-.7,41.4-1.7,61.8-.7,15.7-2.2,31.5-3.6,46.8s-2.8,29.3-3.6,44c-1,19.6.9,47.9,3.2,67.3l-.3.2-2.2,1.6a2,2,0,0,1-.2-.9c-2.3-19.5-4.2-48.6-3.2-68.3.9-14.8,2.2-29.7,3.6-44.1s2.9-31.1,3.6-46.7c1-20.4,1.4-41.4,1.7-61.8.2-15.3.5-31.2,1-46.7.8-22.5-.7-45.3-2.1-67.4-1.2-17.7-2.4-36.1-2.4-54.2,0-11.4-.6-23.1-1.3-34.5-1.2-20.9-2.4-42.6.5-63.6l2.6.4c-2.8,20.7-1.6,42.2-.4,63.1.7,11.4,1.3,23.1,1.3,34.6,0,18,1.2,36.4,2.4,54.1C207,642.5,208.5,665.3,207.7,688Z" style="fill:#18181e"/><path d="M240.4,939.8c-2.5-5.2-5.2-6.9-13.2-6.4-6.4.5-11.8,6.7-10.8,12s-1.4,7,.4,10.9l35.3,1C245.9,951.1,242.8,944.8,240.4,939.8Z" style="fill:#18181e"/><path d="M206.7,523.7h-5.4v-4.1h2.6c10.4.1,23.5.2,29.9-9.3s5.5-22.4,5.3-33.5v-5.7h4c0,1.8,0,3.6.1,5.6.2,11.7.4,26.3-6,35.8S217.2,523.7,206.7,523.7Z" style="fill:#18181e"/><path d="M302.5,304.4a214.1,214.1,0,0,0,23.6-10c-.1-22.2-8.8-47.3-16.4-67.9-3.2-8.4-8.2-18.8-14.7-25s-37.4-13.4-37.4-13.4c-15.4,5.7-20.6,22.5-21.8,30-1.7,11.1.5,24.5,3,35.4,4.7,20.4,12.1,40.9,20.4,60.1A152.9,152.9,0,0,0,302.5,304.4Z" style="fill:#c7c7dd"/><path d="M316.8,290.3c.1,11.9-3.4,11.3-5.4,23.1,0,.4-.1.8-.1,1.2a.7.7,0,0,0-.1.5c-4,27.9-.4,166.3-.6,169.5l-3.8,1.1c-21.6,5-41.5,6.3-66.1,3.7-30.4-3.2-54.6-12.8-79.2-27.6,25.2-47.5,9.5-121.1,2.4-172.1-3.4-24.4-12.2-65.6-3.6-89.5l.6-1.6c7.9-20.6,21.8-30.7,47-30.3h.8l66,13c4.8,9.2,15,17.5,21,26.3S316.8,277.5,316.8,290.3Z" style="fill:#dadaef"/><path d="M311.4,313.4c0,.4-.1.8-.1,1.2a.7.7,0,0,0-.1.5c-4,27.9-.4,166.3-.6,169.5l-3.8,1.1c-26.2,7.5-36.4,6.8-66.1,3.7s-54.6-12.8-79.2-27.6c25.2-47.5,9.5-121.1,2.4-172.1-3.4-24.4-12.2-65.6-3.6-89.5l.6-1.6,21.6-10.1c-6.5,12.7,40.7,29.7,42.3,44.1,1.8,17.4,4,37.4,4.5,55.1.7,22.1,10,34.8,38,34.8A114.1,114.1,0,0,0,311.4,313.4Z" style="fill:#c7c7dd"/><path d="M266,175.2l-30.3,29c6.5,13.5,38.9,24.7,51.2,15.5C302.4,208,275.4,182.4,266,175.2Z" style="fill:#f8f8ff"/><path d="M308.1,49.9c-3.1-3.2-7.9-1.7-11.3-3.6l-3.2,2.9c2.7,2.6,4.3,4.2,6,7.9a58.3,58.3,0,0,1,4.1,10c2,7.1.7,14.7,2.4,21.5,4.2-6.4,6.3-14.4,8.2-22.1C316.8,56.1,311.2,53,308.1,49.9Z" style="fill:#3d2726"/><path d="M234.4,124.4l-7.2-.9c0,3.5-2,.5-2.5,4s-1.1,13.7,1,16,6.4,4,7.7-1.7S234.5,129.5,234.4,124.4Z" style="fill:#3d2726"/><path d="M289.9,131.9a3,3,0,0,0-.9,1.8c-1.6,4.7-2,16.9-3.2,20.9s-2.7,10.6-4.2,15.8l-1.8,6.5c-2.2,7-2.7,10.1.9,17.1,2.1,4.1,8.3,15.9,1.9,18.9-26.8,12.4-61.4-38.2-85.2-44.1,8.5-3.1,25.1-2,28.9-14.6,2.1-6.7,4.8-14.8,4.8-23.7a44.6,44.6,0,0,0-1.5-11.9l46.2,10.7Z" style="fill:#f9a56b"/><path d="M289.6,131.5c-1.6,4.8-2,17-3.2,21s-2.7,10.5-4.1,15.8c-35.9,4.4-53.9-47.8-53-55.1l47.1,14Z" style="fill:#d86f41"/><path d="M309.3,88.6c-1.8-6.7.5-14.8-1.1-21.7-6.2-27.3-28.9-31.1-28.9-31.1-7.5-2.4-18.8-1.3-26.4.2-31.3,6.1-40.5,34.6-28.8,62.3,8.7,20.5,5.3,45.1,38.3,58.6,6.6,2.7,19.7,6.1,28.5,4s11.2-10.2,14.3-15.8c6.3-11.9,8.6-24.2,8.7-36.5C314,100.5,311.3,95.8,309.3,88.6Z" style="fill:#f9a56b"/><path d="M270.8,106.8c-.6,0-2.3-.8-2.8-.8a52.2,52.2,0,0,1-13.1-2.2,14.6,14.6,0,0,0-5-.4c1.6-.6,3.8-3,5.5-3.4,5.2-1.1,10.7-.9,14.1,3C269.9,103.5,270.4,106.1,270.8,106.8Z" style="fill:#d86f41"/><path d="M270.3,106.6h-4.9a63.6,63.6,0,0,1-10.8-1.8l-2.2-.5-2.5-.8,2.9-1,2.2-.6a18,18,0,0,1,9.5.1,9.7,9.7,0,0,1,4.6,3A12.5,12.5,0,0,1,270.3,106.6Z" style="fill:#fff"/><path d="M265.5,106.1v.4a63.6,63.6,0,0,1-10.8-1.8l-2.2-.5a4.4,4.4,0,0,0,.2-1,2.4,2.4,0,0,0,.2-.8l2.2-.6a18,18,0,0,1,9.5.1A9.2,9.2,0,0,1,265.5,106.1Z" style="fill:#16100f"/><path d="M258.1,103.8a.8.8,0,0,1-1,.5c-.4-.1-.7-.5-.6-.8a.8.8,0,0,1,1.6.3Z" style="fill:#fff"/><path d="M309.9,97.2c-.3.2-2,.4-2.4.6-4,2.5-7.5,3.3-10.5,4.2a11,11,0,0,0-3.8,1.9c.9-1.3,1.3-4.4,2.4-5.5,3.2-3.4,7.3-5.8,11.6-3.9A34.4,34.4,0,0,1,309.9,97.2Z" style="fill:#d86f41"/><path d="M309.5,97.2l-1.1.8-2.5,1.4a48.6,48.6,0,0,1-8.6,3.5l-1.9.5-2.2.5a18.4,18.4,0,0,1,1.7-2.2,10.1,10.1,0,0,1,1.3-1.6,13.6,13.6,0,0,1,6.8-4.3,8,8,0,0,1,4.8.5A7,7,0,0,1,309.5,97.2Z" style="fill:#fff"/><path d="M305.8,99v.4a48.6,48.6,0,0,1-8.6,3.5l-1.9.5-.3-1a1.9,1.9,0,0,1-.2-.7,10.1,10.1,0,0,1,1.3-1.6,13.6,13.6,0,0,1,6.8-4.3A11.9,11.9,0,0,1,305.8,99Z" style="fill:#16100f"/><path d="M299.3,100.5a.8.8,0,0,1-.4.9.7.7,0,0,1-.9-.5.8.8,0,0,1,.4-.9A.7.7,0,0,1,299.3,100.5Z" style="fill:#fff"/><path d="M293.1,122.1c-5-5.5-4.5-9.8-6.4-16.2-1.1,5.7.3,10.7,2.4,15.8-1.8,1.2-6.5,3.7-8.3,4.8C286.2,127.6,291.7,126.1,293.1,122.1Z" style="fill:#d86f41"/><path d="M269.4,90s-6.5-1.7-16.7,0a12.3,12.3,0,0,0-9.1,5.5C248.6,92,274.3,99.5,269.4,90Z" style="fill:#3d2726"/><path d="M289.7,87.9s7.7-3,14.6-2.6c3.5.2,6.4,1.2,8.8,4C308.1,86.7,287.1,98,289.7,87.9Z" style="fill:#3d2726"/><path d="M272.7,132.7h.3l.9.3,1.3.5,1.8.5,2.1.5,2.3.4,1.2.2h1.3a11.3,11.3,0,0,0,2.6,0l2.5-.2,2.4-.6,2.1-.8,1.8-1a7.1,7.1,0,0,0,1.4-1l1.1-.8.9-.8a.4.4,0,0,0-.1.3l-.5.7a5.9,5.9,0,0,1-.8,1.1l-.5.7-.7.7-.8.6-.9.7-2.3,1.2-2.6.8-2.9.4h-2.9l-2.7-.4-2.5-.7-2-.9a19.5,19.5,0,0,1-2.8-1.6l-.7-.6Z" style="fill:#d86f41"/><path d="M284.8,144.5h.3a28.7,28.7,0,0,0,7.8.9C291.2,142.3,287.2,142.4,284.8,144.5Z" style="fill:#d86f41"/><path d="M247,44.2l-14.4,5.2c-8.4,4.3-13.8,16.4-16.1,25.3-1.8,6.6-5.1,23-1.2,31.8,5.3-1.7,9.9-5.3,12.6-.5,1.8,3.1,3.2,15.9,6.4,15.3,1.6-6.7,2.5-12.8,1.8-20s-3.2-13.9,1.4-20c2-2.6,3.9-3.3,4.7-6.6s-.3-7-.5-10.5C241.5,58.7,240.4,46.3,247,44.2Z" style="fill:#3d2726"/><path d="M227.5,105c-6.4-4.9-11.5-1.9-13.1,2.9a18,18,0,0,0,1.3,13.5c4,8.1,16.2,14.9,21.2,8.5C235.5,118.8,232.6,109.3,227.5,105Z" style="fill:#f9a56b"/><path d="M231.2,120c-2.3,2.4-5.6-.5-6-3.2s1.8-3.2-.3-6.9c-3.6-6.4-9.9-2.3-7.4,3.6.2-3.4,3.3-3.6,5.3-1.3-9.3,8.5,8.7,18.8,9.7,7.3Z" style="fill:#d86f41"/><path d="M302.4,50.8l-.4.9h-.5c-1,3.9-3.7,7.2-7,9.8s-9.9,6-14.8,9.5a59.6,59.6,0,0,0-10,8.6c-1.4-4.3.8-9.5,4-12.5-10.3.8-20.6,11.1-23.6,20.7-3.9-5.5-1-14.7,1.5-20.2-6.2,1.3-11.3,10.9-13.6,16-3.2,6.9-1.5,17.4-2.1,24.7-2.6-2.8-6.5-10.2-8.3-13.5a37.8,37.8,0,0,1-2.9-7.4,46.4,46.4,0,0,1-6.5,8.7c-.1-1.1-.6-2-.8-3.1-2.2,2.4-6.7,10.9-6.8,10.9S209.2,95,209,91.9a14.2,14.2,0,0,0-3.2,4.5,55.8,55.8,0,0,1,.4-11.6,20.3,20.3,0,0,0-4.5,1.9c.8-3.5,4.9-8.1,6.8-11.4a29.7,29.7,0,0,1-8.7,4.8c2.5-13.3,5.5-20.9,13.1-31.1l1.1-1.4c5.7-7,14.1-13.1,22-17.5s25.6-9.2,35.9-8,26.8,8.9,30,21.3A20.1,20.1,0,0,1,302.4,50.8Z" style="fill:#73504a"/><path d="M222.7,52Z" style="fill:#684743"/><path d="M302.4,50.8l-.4.9h-.5c-1,3.9-3.7,7.2-7,9.8s-9.9,6-14.8,9.5a59.6,59.6,0,0,0-10,8.6c-1.4-4.3.8-9.5,4-12.5-10.3.8-20.6,11.1-23.6,20.7-3.9-5.5-1-14.7,1.5-20.2-6.2,1.3-11.3,10.9-13.6,16-3.2,6.9-1.5,17.4-2.1,24.7-2.6-2.8-6.5-10.2-8.3-13.5a37.8,37.8,0,0,1-2.9-7.4,46.4,46.4,0,0,1-6.5,8.7c-.1-1.1-.6-2-.8-3.1-2.2,2.4-6.7,10.9-6.8,10.9S209.2,95,209,91.9a14.2,14.2,0,0,0-3.2,4.5,55.8,55.8,0,0,1,.4-11.6,20.3,20.3,0,0,0-4.5,1.9c.8-3.5,4.9-8.1,6.8-11.4a29.7,29.7,0,0,1-8.7,4.8c2.5-13.3,5.5-20.9,13.1-31.1l1.1-1.4a81.1,81.1,0,0,0-1,10.3c1.6-3.3,6.5-4.7,9.7-5.9-3.6,4.2-4.1,12.6-2.9,17.6a33,33,0,0,1,5.9-5.9c.3,4.8.7,12,4.5,15.3-.1-16.3,17-26.5,28.9-34.2-2.4,3.1-4.9,9.7-4.5,13.6l3.6-2.5c-.9,2.6.7,6.6,2.3,8.8,6.2-3.2,10.4-8.4,14.5-13.8a11.5,11.5,0,0,0,3.9,9.7c2.1-1.8,3.8-4.7,5.1-7a7.9,7.9,0,0,0,2.1,2.7c5.7-3.2,12.2-7.2,15.8-12.9A20.1,20.1,0,0,1,302.4,50.8Z" style="fill:#3d2726"/><path d="M255.2,119.2c-5.6.4-10.5-3.1-13.8-10.1a29.4,29.4,0,0,1-1.9-5.3c-.8-2.9-.5-3.2-.1-3.6,3.5-3.7,12.3-5.6,19.3-6.2,8.7-.7,15.9.4,19.2,2.9.4.2.8.5.6,3.7a31.8,31.8,0,0,1-1.1,6.1c-1.4,5-4.7,11-12.1,11.7H265Zm-13.7-17.6c.3,1.8,2.2,8.7,6.4,12.6a9.3,9.3,0,0,0,7.1,2.6h.1l10-.8a9.7,9.7,0,0,0,7.2-4c3.4-4.6,3.9-11.5,3.8-13.3-3-1.9-9.7-2.8-17.2-2.1S244.3,99.1,241.5,101.6Z" style="fill:#18181e"/><path d="M299.2,114.7c-4.7.4-8.9-3.3-11.8-10.2-.9-2.3-1.4-4.4-1.7-5.4-.7-2.9-.4-3.2-.1-3.6,3-3.6,10.4-5.4,16.3-5.9,7.4-.6,13.5.5,16.4,3.1.3.2.6.5.5,3.7a45.5,45.5,0,0,1-.8,6c-1.2,5-3.9,11.1-10.2,11.6h-.2ZM287.4,96.9c.2,1.9,2,8.8,5.6,12.7a7.6,7.6,0,0,0,6,2.7h.2l8.4-.6a8.3,8.3,0,0,0,6.1-4c2.8-4.5,3.1-11.4,3-13.3-2.5-1.9-8.2-2.8-14.6-2.3S289.7,94.5,287.4,96.9Z" style="fill:#18181e"/><path d="M276.7,98.6l-1.4-2.3a14.1,14.1,0,0,1,12.5-1.5l-1,2.5C283.7,96.1,280.1,96.6,276.7,98.6Z" style="fill:#18181e"/><path d="M144.7,265.9c6.7-5.6,16.4-3.3,24.3-3.8l2-82.2C142.7,202.1,137.8,231.6,144.7,265.9Z" style="fill:#2e2a29"/><path d="M137,228.4c-5.6-8.8-12.4-2.3-19.6,2-10.9,6.5-13.2,8.8-13.7,20.5-.2,6.5-.9,23.3-7,26.1l7.2-.9c3.9-8.6,3.7-19.1,7.2-27s12-10.3,18.9-13.6c5.9,3.9,8,12.3,8.3,18.9C140.1,248.9,140.5,234,137,228.4Z" style="fill:#2e2a29"/><path d="M212.2,412.5c-1.6,11.8-10.8,22.6-18.1,32.3-13.6,18.1-28.1,54.2-52.4,57.9-69.4,10.4-63.1-91.4-69.8-135.5-2.2-14-4.9-27.9,3.2-40.6S86,304.5,90,291.8s11-23.6,22.7-33.2l1.1-1c5.5-4.5,11-9.2,16.6-13.4s13.6-7.1,18.9-11.1l9.3-12.8c1.4,10.8,12.5,22.9,17.3,33.2,5.7,12.4,12.7,24.1,19.5,36.4s5.4,25.4,4.1,40.1c-.3,3.6-.5,7.3-.6,11-.2,10.5.8,21.4,3.8,30.9C206.6,384.4,214.1,398.8,212.2,412.5Z" style="fill:#2e2a29"/><path d="M212.2,412.5c-1.6,11.8-10.8,22.6-18.1,32.3-13.6,18.1-28.1,54.2-52.4,57.9-14.7,2.2-26-.6-34.7-6.9C74.3,472.7,77.2,402,71.9,367.2c-2.2-14-4.9-27.9,3.2-40.6S86,304.5,90,291.8s11-23.6,22.7-33.2l1.1-1c-2.1,15,.1,31.2,4,45.9s7.6,26.4,10.3,39.3c1.8,9.2,1.6,19.3,5.2,27.9,16.2-.2,30.8,6.2,44.7-5.2,8.6-6.9,14.8-15.7,20.9-24.5-.2,10.5.8,21.4,3.8,30.9,1.9,6,4.6,12.4,6.7,19S213.2,405.4,212.2,412.5Z" style="fill:#423d3c"/><path d="M212.2,412.5c-1.6,11.8-10.8,22.6-18.1,32.3-13.6,18.1-28.1,54.2-52.4,57.9-14.7,2.2-26-.6-34.7-6.9-.6-6.1-.7-12.2-1.1-18.7-.7-13.4.7-27.5,6-39.9,2.7-6.3,6.7-11.6,11-17.1,3.1-3.9,7.4-14.6,11.3-16.8s16,.8,21,.7c8.3-.1,14.9-2.1,22.8-4.1,9.4-2.3,21.4-4.8,31.4-9C211.6,398.1,213.2,405.4,212.2,412.5Z" style="fill:#2e2a29"/><path d="M222.5,192.3a74.8,74.8,0,0,1,5.9,44.2c-5.3,28.5-30.1,147.4-42.7,160.9.9,4.5,13.5,1.8,18,1.8,17.6-25.6,53.7-117,45.5-196-1.8-17.7-30.4-39.5-39.8-38.1s-23.6,6-23.6,6C195.9,172,217.9,183,222.5,192.3Z" style="fill:#2e2a29"/><path d="M355.9,316.5a6.9,6.9,0,0,1-2.6,3.8l-6.9-.9-5.4-.6a23,23,0,0,1,1.6-8.9c1.1-3.4,2.6-6.7,3-10a24.3,24.3,0,0,1,2.8,2c2.9,2.1,5.7,4.8,6.7,7.9C355.5,311.4,356.6,313.9,355.9,316.5Z" style="fill:#d86f41"/><path d="M343.3,271.7l-26,150.1a4.4,4.4,0,0,1-5.1,3.6l-94-16.3a4.3,4.3,0,0,1-3.6-5.1l26-150.1a4.4,4.4,0,0,1,5.1-3.6l94,16.3A4.4,4.4,0,0,1,343.3,271.7Z" style="fill:#e2231a"/><path d="M343.3,271.7l-26,150.1a4.4,4.4,0,0,1-5.1,3.6l-89.8-15.6a4.4,4.4,0,0,1-3.6-5.1l26-150.1a4.5,4.5,0,0,1,5.1-3.6l89.8,15.6A4.4,4.4,0,0,1,343.3,271.7Z" style="fill:#f92828"/><path d="M310.6,312a4.4,4.4,0,0,1-5.1,3.6l-34.6-6a4.3,4.3,0,0,1-3.6-5.1l1.8-10.6a4.4,4.4,0,0,1,5.1-3.6l34.7,6a4.6,4.6,0,0,1,3.6,5.2Z" style="fill:#e2231a"/><path d="M355.8,283.5l-40.1,147a4.4,4.4,0,0,1-5.4,3.1l-92.1-25.1a4.6,4.6,0,0,1-3.1-5.5l40.1-146.9a4.4,4.4,0,0,1,5.4-3.1l92.1,25.1A4.4,4.4,0,0,1,355.8,283.5Z" style="fill:#075975"/><path d="M355.8,283.5l-40.1,147a4.4,4.4,0,0,1-5.4,3.1l-87.9-24a4.4,4.4,0,0,1-3.1-5.4l40.1-147a4.4,4.4,0,0,1,5.4-3.1l87.9,24A4.4,4.4,0,0,1,355.8,283.5Z" style="fill:#086a97"/><path d="M319.5,320.5a4.4,4.4,0,0,1-5.5,3.1l-33.9-9.2a4.5,4.5,0,0,1-3.1-5.5l2.8-10.3a4.5,4.5,0,0,1,5.4-3.1l34,9.3a4.4,4.4,0,0,1,3.1,5.4Z" style="fill:#075975"/><path d="M219.4,333.5c0,1.5-.1,2.9-.2,4.2-1.2,16.1-6.7,48.3-26.4,51s-29.2-28.8-31.9-48.4c-.8-5.4-7.8-74.1-5.4-94.3l62.7,21.5c.2,4.9.4,12,.7,19.9C219.4,303,219.9,321.8,219.4,333.5Z" style="fill:#f9a56b"/><path d="M308.9,313.2c-28.4,28.1-70.9,11.3-106.1,23.1-12.6,4.2-38.6-22.1-41.9-7.4-1.5,6.6,4.3,44.3,6.7,49.9,8.1,18.1,33.7,20.6,60.7,8,22.2-10.4,61-26.4,80.5-39.7Z" style="fill:#f9a56b"/><path d="M206,284.4h.6l-.6-1.9A10.8,10.8,0,0,1,206,284.4Z" style="fill:#d86f41"/><path d="M219.4,333.5c-9.4,3.8-17.5,9.7-26.7,16.8,3-8.8,13.8-14.1,16-21.4s.4-17.2.1-23.6-.6-14.5-2.2-20.8l12.3,2.9C219.4,303,219.9,321.8,219.4,333.5Z" style="fill:#d86f41"/><path d="M348.3,298.4c4.4-13.2-7.4-6.6-13.6-2.9-13.6,7.8-30.1,7.3-29.8,25.1l-8.4,6.2c-1.6,13.7,8.5,24.2,31.3,24.2,8.3,0,15.1-36.8,6-41.3C340.3,305.1,347,302.3,348.3,298.4Z" style="fill:#f9a56b"/><path d="M355.6,315.5c-.1,1.1-.9,2.1-2.1,4s-1.1.8-1.1,2.6.7,3.2.8,4.1c.6,3.7-1.2,6.5-5.4,9.1,1.9,3.4,1.3,8-4.3,10-.5,2.5-2.7,4.1-5.9,5.1-8.2,2.4-22.6.3-26.7-2l13.9-41.2c1.3,2,13,.8,16.1,1.1h.2l5.5.4c3.2.3,6.4,1.2,7.9,3.8A5.8,5.8,0,0,1,355.6,315.5Z" style="fill:#f9a56b"/><path d="M355.6,315.5c-.1,1.1-.9,2.1-2.1,4s-1.1.8-1.1,2.6.7,3.2.8,4.1c.6,3.7-1.2,6.5-5.4,9.1,1.9,3.4,1.3,8-4.3,10-.5,2.5-2.7,4.1-5.9,5.1a9.5,9.5,0,0,0,.7-8.1c4-2.2,5.1-6,3.8-10.1,4.2-1.9,6.2-9.9,2.8-13.3l.3-.3c2.5-2.2,2.3-6.1,1.4-9.9,3.2.3,6.4,1.2,7.9,3.8A5.8,5.8,0,0,1,355.6,315.5Z" style="fill:#d86f41"/><path d="M224.4,295.7c-.6,4.8-1.5,9.5-2.5,14a165.8,165.8,0,0,1-24.2,3.4,118.6,118.6,0,0,1-41.9-3.8c-.4-3.7-.8-7.5-1.1-11.2a481.6,481.6,0,0,1-1.6-61.2c.6-12.8,2.3-28.1,6.8-39.7,3-7.9,13.8-26.7,25.9-24.7,10.2,1.7,28.1,13.3,31.7,20.9s6.8,26.4,7.4,36.7C226.1,250.4,227.2,274.4,224.4,295.7Z" style="fill:#dadaef"/><path d="M224.4,295.7c-.6,4.8-1.5,9.5-2.5,14a165.8,165.8,0,0,1-24.2,3.4,118.6,118.6,0,0,1-41.9-3.8c-.4-3.7-.8-7.5-1.1-11.2,10.2,2.8,24.6,2.6,34.6,2.2C201.4,299.9,213.4,300,224.4,295.7Z" style="fill:#f8f8ff"/></g></g></svg>